<svg width="60" height="60" viewBox="0 0 60 60" fill="none" xmlns="http://www.w3.org/2000/svg">
<path d="M30 59.5C13.7076 59.5 0.5 46.2924 0.5 30C0.5 13.7076 13.7076 0.5 30 0.5C46.2924 0.5 59.5 13.7076 59.5 30C59.5 46.2924 46.2924 59.5 30 59.5Z" stroke="#BEC8C9"/>
<path d="M30.6351 22.3666L43.1351 34.8666C43.2512 34.9828 43.3433 35.1207 43.4062 35.2724C43.469 35.4241 43.5014 35.5868 43.5014 35.751C43.5014 35.9153 43.469 36.0779 43.4062 36.2296C43.3433 36.3814 43.2512 36.5193 43.1351 36.6354C43.0189 36.7515 42.8811 36.8437 42.7293 36.9065C42.5776 36.9694 42.4149 37.0017 42.2507 37.0017C42.0865 37.0017 41.9238 36.9694 41.7721 36.9065C41.6203 36.8437 41.4825 36.7515 41.3663 36.6354L29.7507 25.0182L18.1351 36.6354C17.9005 36.8699 17.5824 37.0017 17.2507 37.0017C16.919 37.0017 16.6009 36.8699 16.3663 36.6354C16.1318 36.4008 16 36.0827 16 35.751C16 35.4193 16.1318 35.1012 16.3663 34.8666L28.8663 22.3666C28.9824 22.2504 29.1203 22.1582 29.272 22.0953C29.4238 22.0324 29.5864 22 29.7507 22C29.915 22 30.0776 22.0324 30.2294 22.0953C30.3811 22.1582 30.519 22.2504 30.6351 22.3666Z" fill="#4A6365"/>
</svg>
