<svg width="18" height="16" viewBox="0 0 18 16" fill="none" xmlns="http://www.w3.org/2000/svg">
<path d="M6.08366 7.1665V9.6665M11.917 7.1665V9.6665M1.29199 8.4165H16.7087M1.29199 6.33317C1.29199 5.67013 1.55538 5.03424 2.02423 4.5654C2.49307 4.09656 3.12895 3.83317 3.79199 3.83317H14.2087C14.8717 3.83317 15.5076 4.09656 15.9764 4.5654C16.4453 5.03424 16.7087 5.67013 16.7087 6.33317V12.5832C16.7087 13.2462 16.4453 13.8821 15.9764 14.3509C15.5076 14.8198 14.8717 15.0832 14.2087 15.0832H3.79199C3.12895 15.0832 2.49307 14.8198 2.02423 14.3509C1.55538 13.8821 1.29199 13.2462 1.29199 12.5832V6.33317ZM5.66699 2.58317C5.66699 2.14114 5.84259 1.71722 6.15515 1.40466C6.46771 1.0921 6.89163 0.916504 7.33366 0.916504H10.667C11.109 0.916504 11.5329 1.0921 11.8455 1.40466C12.1581 1.71722 12.3337 2.14114 12.3337 2.58317V3.83317H5.66699V2.58317Z" stroke="#4A6365" stroke-width="1.5" stroke-linecap="round" stroke-linejoin="round"/>
</svg>
