<svg width="18" height="18" viewBox="0 0 18 18" fill="none" xmlns="http://www.w3.org/2000/svg">
<path d="M3.5625 7.3125L8.205 11.955C8.41594 12.1657 8.70187 12.284 9 12.284C9.29813 12.284 9.58406 12.1657 9.795 11.955L14.4375 7.3125" stroke="black" stroke-width="1.5" stroke-linecap="round" stroke-linejoin="round"/>
<path d="M3.5625 7.3125L8.205 11.955C8.41594 12.1657 8.70187 12.284 9 12.284C9.29813 12.284 9.58406 12.1657 9.795 11.955L14.4375 7.3125" stroke="black" stroke-opacity="0.2" stroke-width="1.5" stroke-linecap="round" stroke-linejoin="round"/>
<path d="M3.5625 7.3125L8.205 11.955C8.41594 12.1657 8.70187 12.284 9 12.284C9.29813 12.284 9.58406 12.1657 9.795 11.955L14.4375 7.3125" stroke="black" stroke-opacity="0.2" stroke-width="1.5" stroke-linecap="round" stroke-linejoin="round"/>
<path d="M3.5625 7.3125L8.205 11.955C8.41594 12.1657 8.70187 12.284 9 12.284C9.29813 12.284 9.58406 12.1657 9.795 11.955L14.4375 7.3125" stroke="black" stroke-opacity="0.2" stroke-width="1.5" stroke-linecap="round" stroke-linejoin="round"/>
<path d="M3.5625 7.3125L8.205 11.955C8.41594 12.1657 8.70187 12.284 9 12.284C9.29813 12.284 9.58406 12.1657 9.795 11.955L14.4375 7.3125" stroke="black" stroke-opacity="0.2" stroke-width="1.5" stroke-linecap="round" stroke-linejoin="round"/>
</svg>
