<svg width="24" height="24" viewBox="0 0 24 24" fill="none" xmlns="http://www.w3.org/2000/svg">
<path d="M21.375 16.4063C21.2893 16.4551 21.1949 16.4866 21.097 16.4989C20.9992 16.5112 20.8999 16.5041 20.8048 16.478C20.7097 16.4518 20.6207 16.4072 20.5429 16.3467C20.465 16.2861 20.3999 16.2108 20.3512 16.125L18.57 13.0125C17.5344 13.7127 16.3921 14.2402 15.1875 14.5744L15.7378 17.8763C15.754 17.9735 15.751 18.0729 15.7288 18.1689C15.7065 18.2649 15.6656 18.3556 15.6083 18.4358C15.551 18.516 15.4785 18.5841 15.3949 18.6363C15.3112 18.6884 15.2182 18.7236 15.1209 18.7397C15.0809 18.7462 15.0405 18.7497 15 18.75C14.8226 18.7498 14.651 18.6866 14.5157 18.5718C14.3805 18.4569 14.2903 18.2979 14.2612 18.1228L13.7203 14.881C12.5796 15.0397 11.4223 15.0397 10.2816 14.881L9.74062 18.1228C9.71152 18.2982 9.62108 18.4575 9.48543 18.5724C9.34978 18.6872 9.17775 18.7502 9 18.75C8.95854 18.7498 8.91716 18.7464 8.87625 18.7397C8.77903 18.7236 8.68595 18.6884 8.60232 18.6363C8.51869 18.5841 8.44616 18.516 8.38887 18.4358C8.33158 18.3556 8.29065 18.2649 8.26843 18.1689C8.24621 18.0729 8.24314 17.9735 8.25937 17.8763L8.8125 14.5744C7.6084 14.2391 6.46669 13.7107 5.43187 13.0097L3.65625 16.125C3.55679 16.2983 3.39257 16.425 3.1997 16.4772C3.00683 16.5294 2.80111 16.5029 2.62781 16.4035C2.45451 16.304 2.32781 16.1398 2.2756 15.9469C2.22338 15.754 2.24992 15.5483 2.34937 15.375L4.22437 12.0938C3.56578 11.5248 2.96017 10.8972 2.415 10.2188C2.34701 10.1429 2.2952 10.0539 2.26274 9.95729C2.23028 9.86069 2.21785 9.75849 2.2262 9.65693C2.23455 9.55536 2.26351 9.45657 2.31132 9.36657C2.35912 9.27657 2.42477 9.19726 2.50424 9.13347C2.58372 9.06969 2.67536 9.02277 2.77357 8.99558C2.87178 8.96839 2.97451 8.9615 3.07547 8.97533C3.17643 8.98916 3.27352 9.02342 3.3608 9.07602C3.44808 9.12862 3.52373 9.19846 3.58312 9.28127C5.13937 11.2069 7.86187 13.5 12 13.5C16.1381 13.5 18.8606 11.2041 20.4169 9.28127C20.4756 9.19676 20.5511 9.12525 20.6386 9.07117C20.7262 9.01708 20.8239 8.9816 20.9257 8.96691C21.0276 8.95222 21.1314 8.95865 21.2306 8.98579C21.3299 9.01293 21.4225 9.06021 21.5027 9.12468C21.5829 9.18915 21.649 9.26943 21.6968 9.36054C21.7446 9.45164 21.7732 9.55161 21.7808 9.65423C21.7883 9.75686 21.7747 9.85993 21.7407 9.95706C21.7067 10.0542 21.653 10.1433 21.5831 10.2188C21.038 10.8972 20.4323 11.5248 19.7737 12.0938L21.6487 15.375C21.6991 15.4606 21.7319 15.5552 21.7454 15.6535C21.7589 15.7519 21.7527 15.8519 21.7273 15.9478C21.7018 16.0437 21.6575 16.1337 21.5971 16.2123C21.5366 16.291 21.4611 16.357 21.375 16.4063Z" fill="#0F1E1F"/>
</svg>
