<svg width="20" height="20" viewBox="0 0 20 20" fill="none" xmlns="http://www.w3.org/2000/svg">
<path d="M13.1251 1.975L13.125 1.975L6.875 1.975C6.57 1.975 6.27749 2.09616 6.06183 2.31183C5.84616 2.52749 5.725 2.82 5.725 3.125V4.375V4.475H5.625H4.375C4.07 4.475 3.77749 4.59616 3.56183 4.81183C3.34616 5.02749 3.225 5.32 3.225 5.625V16.875C3.225 17.18 3.34616 17.4725 3.56183 17.6882C3.77749 17.9038 4.07 18.025 4.375 18.025H13.125C13.43 18.025 13.7225 17.9038 13.9382 17.6882C14.1538 17.4725 14.275 17.18 14.275 16.875V15.625V15.525H14.375H15.625C15.93 15.525 16.2225 15.4038 16.4382 15.1882C16.6538 14.9725 16.775 14.68 16.775 14.375V5.625V5.62492C16.7751 5.55596 16.7615 5.48766 16.7352 5.42393L16.8276 5.38572L16.7352 5.42393C16.7088 5.36021 16.6702 5.30231 16.6215 5.25352M13.1251 1.975L13.4965 2.12856L16.6214 5.25348M13.1251 1.975C13.194 1.97495 13.2623 1.98848 13.3261 2.01483C13.3898 2.04117 13.4477 2.0798 13.4965 2.12852L13.1251 1.975ZM16.6215 5.25352L16.6922 5.18281L16.6214 5.25348M16.6215 5.25352C16.6215 5.25351 16.6215 5.2535 16.6214 5.25348M16.6215 5.25352L16.6214 5.25348M15.725 14.475H15.625H14.375H14.275V14.375V8.125V8.12492C14.2751 8.05596 14.2615 7.98766 14.2352 7.92393L14.3276 7.88572L14.2352 7.92392C14.2088 7.86021 14.1702 7.80231 14.1215 7.75352L15.725 14.475ZM15.725 14.475V14.375M15.725 14.475V14.375M15.725 14.375V5.88359V5.84217L15.6957 5.81288L12.9371 3.05429L12.9078 3.025H12.8664H6.875H6.775V3.125V4.375V4.475H6.875L10.625 4.475L10.6251 4.475M15.725 14.375L10.6251 4.475M10.6251 4.475C10.694 4.47495 10.7623 4.48848 10.8261 4.51483C10.8898 4.54117 10.9477 4.5798 10.9965 4.62852L10.6251 4.475ZM16.875 14.375V5.625L4.375 4.375C4.04348 4.375 3.72554 4.5067 3.49112 4.74112C3.2567 4.97554 3.125 5.29348 3.125 5.625V16.875C3.125 17.2065 3.2567 17.5245 3.49112 17.7589C3.72554 17.9933 4.04348 18.125 4.375 18.125H13.125C13.4565 18.125 13.7745 17.9933 14.0089 17.7589C14.2433 17.5245 14.375 17.2065 14.375 16.875V15.725V15.625H14.475H15.625C15.9565 15.625 16.2745 15.4933 16.5089 15.2589C16.7433 15.0245 16.875 14.7065 16.875 14.375ZM13.125 16.975H13.225V16.875V15.0125V15.0125V15.0124V15.0124V15.0124V15.0124V15.0123V15.0123V15.0123V15.0123V15.0122V15.0122V15.0122V15.0121V15.0121V15.0121V15.0121V15.012V15.012V15.012V15.012V15.0119V15.0119V15.0119V15.0118V15.0118V15.0118V15.0118V15.0117V15.0117V15.0117V15.0117V15.0116V15.0116V15.0116V15.0115V15.0115V15.0115V15.0115V15.0114V15.0114V15.0114V15.0114V15.0113V15.0113V15.0113V15.0113V15.0112V15.0112V15.0112V15.0111V15.0111V15.0111V15.0111V15.011V15.011V15.011V15.011V15.0109V15.0109V15.0109V15.0109V15.0108V15.0108V15.0108V15.0108V15.0107V15.0107V15.0107V15.0106V15.0106V15.0106V15.0106V15.0105V15.0105V15.0105V15.0105V15.0104V15.0104V15.0104V15.0104V15.0103V15.0103V15.0103V15.0103V15.0102V15.0102V15.0102V15.0101V15.0101V15.0101V15.0101V15.01V15.01V15.01V15.01V15.0099V15.0099V15.0099V15.0099V15.0098V15.0098V15.0098V15.0098V15.0097V15.0097V15.0097V15.0097V15.0096V15.0096V15.0096V15.0096V15.0095V15.0095V15.0095V15.0095V15.0094V15.0094V15.0094V15.0093V15.0093V15.0093V15.0093V15.0092V15.0092V15.0092V15.0092V15.0091V15.0091V15.0091V15.0091V15.009V15.009V15.009V15.009V15.0089V15.0089V15.0089V15.0089V15.0088V15.0088V15.0088V15.0088V15.0087V15.0087V15.0087V15.0087V15.0086V15.0086V15.0086V15.0086V15.0085V15.0085V15.0085V15.0085V15.0084V15.0084V15.0084V15.0084V15.0083V15.0083V15.0083V15.0083V15.0082V15.0082V15.0082V15.0082V15.0081V15.0081V15.0081V15.0081V15.008V15.008V15.008V15.008V15.0079V15.0079V15.0079V15.0079V15.0078V15.0078V15.0078V15.0078V15.0077V15.0077V15.0077V15.0077V15.0076V15.0076V15.0076V15.0076V15.0075V15.0075V15.0075V15.0075V15.0074V15.0074V15.0074V15.0074V15.0073V15.0073V15.0073V15.0073V15.0072V15.0072V15.0072V15.0072V15.0071V15.0071V15.0071V15.0071V15.007V15.007V15.007V15.007V15.007V15.0069V15.0069V15.0069V15.0069V15.0068V15.0068V15.0068V15.0068V15.0067V15.0067V15.0067V15.0067V15.0066V15.0066V15.0066V15.0066V15.0065V15.0065V15.0065V15.0065V15.0064V15.0064V15.0064V15.0064V15.0063V15.0063V15.0063V15.0063V15.0062V15.0062V15.0062V15.0062V15.0061V15.0061V15.0061V15.0061V15.0061V15.006V15.006V15.006V15.006V15.0059V15.0059V15.0059V15.0059V15.0058V15.0058V15.0058V15.0058V15.0057V15.0057V15.0057V15.0057V15.0056V15.0056V15.0056V15.0056V15.0055V15.0055V15.0055V15.0055V15.0055V15.0054V15.0054V15.0054V15.0054V15.0053V15.0053V15.0053V15.0053V15.0052V15.0052V15.0052V15.0052V15.0051V15.0051V15.0051V15.0051V15.005V15.005V15.005V15.005V15.005V15.0049V15.0049V15.0049V15.0049V15.0048V15.0048V15.0048V15.0048V15.0047V15.0047V15.0047V15.0047V15.0046V15.0046V15.0046V15.0046V15.0046V15.0045V15.0045V15.0045V15.0045V15.0044V15.0044V15.0044V15.0044V15.0043V15.0043V15.0043V15.0043V15.0042V15.0042V15.0042V15.0042V15.0042V15.0041V15.0041V15.0041V15.0041V15.004V15.004V15.004V15.004V15.0039V15.0039V15.0039V15.0039V15.0038V15.0038V15.0038V15.0038V15.0038V15.0037V15.0037V15.0037V15.0037V15.0036V15.0036V15.0036V15.0036V15.0035V15.0035V15.0035V15.0035V15.0035V15.0034V15.0034V15.0034V15.0034V15.0033V15.0033V15.0033V15.0033V15.0032V15.0032V15.0032V15.0032V15.0032V15.0031V15.0031V15.0031V15.0031V15.003V15.003V15.003V15.003V15.0029V15.0029V15.0029V15.0029V15.0028V15.0028V15.0028V15.0028V15.0028V15.0027V15.0027V15.0027V15.0027V15.0026V15.0026V15.0026V15.0026V15.0025V15.0025V15.0025V15.0025V15.0025V15.0024V15.0024V15.0024V15.0024V15.0023V15.0023V15.0023V15.0023V15.0022V15.0022V15.0022V15.0022V15.0022V15.0021V15.0021V15.0021V15.0021V15.002V15.002V15.002V15.002V15.0019V15.0019V15.0019V15.0019V15.0019V15.0018V15.0018V15.0018V15.0018V15.0017V15.0017V15.0017V15.0017V15.0016V15.0016V15.0016V15.0016V15.0016V15.0015V15.0015V15.0015V15.0015V15.0014V15.0014V15.0014V15.0014V15.0014V15.0013V15.0013V15.0013V15.0013V15.0012V15.0012V15.0012V15.0012V15.0011V15.0011V15.0011V15.0011V15.0011V15.001V15.001V15.001V15.001V15.0009V15.0009V15.0009V15.0009V15.0008V15.0008V15.0008V15.0008V15.0008V15.0007V15.0007V15.0007V15.0007V15.0006V15.0006V15.0006V15.0006V15.0005V15.0005V15.0005V15.0005V15.0005V15.0004V15.0004V15.0004V15.0004V15.0003V15.0003V15.0003V15.0003V15.0003V15.0002V15.0002V15.0002V15.0002V15.0001V15.0001V15.0001V15.0001V15V15V15V15V15V14.9999V14.9999V14.9999V14.9999V14.9998V14.9998V14.9998V14.9998V14.9997V14.9997V14.9997V14.9997V14.9997V14.9996V14.9996V14.9996V14.9996V14.9995V14.9995V14.9995V14.9995V14.9995V14.9994V14.9994V14.9994V14.9994V14.9993V14.9993V14.9993V14.9993V14.9992V14.9992V14.9992V14.9992V14.9992V14.9991V14.9991V14.9991V14.9991V14.999V14.999V14.999V14.999V14.9989V14.9989V14.9989V14.9989V14.9989V14.9988V14.9988V14.9988V14.9988V14.9987V14.9987V14.9987V14.9987V14.9986V14.9986V14.9986V14.9986V14.9986V14.9985V14.9985V14.9985V14.9985V14.9984V14.9984V14.9984V14.9984V14.9984V14.9983V14.9983V14.9983V14.9983V14.9982V14.9982V14.9982V14.9982V14.9981V14.9981V14.9981V14.9981V14.9981V14.998V14.998V14.998V14.998V14.9979V14.9979V14.9979V14.9979V14.9978V14.9978V14.9978V14.9978V14.9978V14.9977V14.9977V14.9977V14.9977V14.9976V14.9976V14.9976V14.9976V14.9975V14.9975V14.9975V14.9975V14.9975V14.9974V14.9974V14.9974V14.9974V14.9973V14.9973V14.9973V14.9973V14.9972V14.9972V14.9972V14.9972V14.9972V14.9971V14.9971V14.9971V14.9971V14.997V14.997V14.997V14.997V14.9969V14.9969V14.9969V14.9969V14.9968V14.9968V14.9968V14.9968V14.9968V14.9967V14.9967V14.9967V14.9967V14.9966V14.9966V14.9966V14.9966V14.9965V14.9965V14.9965V14.9965V14.9965V14.9964V14.9964V14.9964V14.9964V14.9963V14.9963V14.9963V14.9963V14.9962V14.9962V14.9962V14.9962V14.9962V14.9961V14.9961V14.9961V14.9961V14.996V14.996V14.996V14.996V14.9959V14.9959V14.9959V14.9959V14.9958V14.9958V14.9958V14.9958V14.9958V14.9957V14.9957V14.9957V14.9957V14.9956V14.9956V14.9956V14.9956V14.9955V14.9955V14.9955V14.9955V14.9954V14.9954V14.9954V14.9954V14.9954V14.9953V14.9953V14.9953V14.9953V14.9952V14.9952V14.9952V14.9952V14.9951V14.9951V14.9951V14.9951V14.995V14.995V14.995V14.995V14.995V14.9949V14.9949V14.9949V14.9949V14.9948V14.9948V14.9948V14.9948V14.9947V14.9947V14.9947V14.9947V14.9946V14.9946V14.9946V14.9946V14.9945V14.9945V14.9945V14.9945V14.9945V14.9944V14.9944V14.9944V14.9944V14.9943V14.9943V14.9943V14.9943V14.9942V14.9942V14.9942V14.9942V14.9941V14.9941V14.9941V14.9941V14.994V14.994V14.994V14.994V14.9939V14.9939V14.9939V14.9939V14.9939V14.9938V14.9938V14.9938V14.9938V14.9937V14.9937V14.9937V14.9937V14.9936V14.9936V14.9936V14.9936V14.9935V14.9935V14.9935V14.9935V14.9934V14.9934V14.9934V14.9934V14.9933V14.9933V14.9933V14.9933V14.9932V14.9932V14.9932V14.9932V14.9931V14.9931V14.9931V14.9931V14.993V14.993V14.993V14.993V14.993V14.9929V14.9929V14.9929V14.9929V14.9928V14.9928V14.9928V14.9928V14.9927V14.9927V14.9927V14.9927V14.9926V14.9926V14.9926V14.9926V14.9925V14.9925V14.9925V14.9925V14.9924V14.9924V14.9924V14.9924V14.9923V14.9923V14.9923V14.9923V14.9922V14.9922V14.9922V14.9922V14.9921V14.9921V14.9921V14.9921V14.992V14.992V14.992V14.992V14.9919V14.9919V14.9919V14.9919V14.9918V14.9918V14.9918V14.9918V14.9917V14.9917V14.9917V14.9917V14.9916V14.9916V14.9916V14.9916V14.9915V14.9915V14.9915V14.9915V14.9914V14.9914V14.9914V14.9914V14.9913V14.9913V14.9913V14.9913V14.9912V14.9912V14.9912V14.9912V14.9911V14.9911V14.9911V14.9911V14.991V14.991V14.991V14.991V14.9909V14.9909V14.9909V14.9909V14.9908V14.9908V14.9908V14.9908V14.9907V14.9907V14.9907V14.9907V14.9906V14.9906V14.9906V14.9905V14.9905V14.9905V14.9905V14.9904V14.9904V14.9904V14.9904V14.9903V14.9903V14.9903V14.9903V14.9902V14.9902V14.9902V14.9902V14.9901V14.9901V14.9901V14.9901V14.99V14.99V14.99V14.99V14.9899V14.9899V14.9899V14.9899V14.9898V14.9898V14.9898V14.9897V14.9897V14.9897V14.9897V14.9896V14.9896V14.9896V14.9896V14.9895V14.9895V14.9895V14.9895V14.9894V14.9894V14.9894V14.9894V14.9893V14.9893V14.9893V14.9892V14.9892V14.9892V14.9892V14.9891V14.9891V14.9891V14.9891V14.989V14.989V14.989V14.989V14.9889V14.9889V14.9889V14.9889V14.9888V14.9888V14.9888V14.9887V14.9887V14.9887V14.9887V14.9886V14.9886V14.9886V14.9886V14.9885V14.9885V14.9885V14.9885V14.9884V14.9884V14.9884V14.9883V14.9883V14.9883V14.9883V14.9882V14.9882V14.9882V14.9882V14.9881V14.9881V14.9881V14.988V14.988V14.988V14.988V14.9879V14.9879V14.9879V14.9879V14.9878V14.9878V14.9878V14.9877V14.9877V14.9877V14.9877V14.9876V14.9876V14.9876V14.9876V14.9875V14.9875V8.38359V8.34217L13.1957 8.31288L10.4371 5.55429L10.4078 5.525H10.3664H4.375H4.275V5.625V16.875V16.975H4.375H13.125ZM10.9965 4.62856L14.1214 7.75348L10.9965 4.62856ZM14.375 14.275V8.125L15.625 5.88359V14.275V14.375H15.525H14.475H14.375V14.275ZM11.15 11.875C11.15 12.0142 11.0947 12.1478 10.9962 12.2462C10.8978 12.3447 10.7642 12.4 10.625 12.4H6.875C6.73576 12.4 6.60223 12.3447 6.50377 12.2462C6.40531 12.1478 6.35 12.0142 6.35 11.875C6.35 11.7358 6.40531 11.6022 6.50377 11.5038C6.60223 11.4053 6.73576 11.35 6.875 11.35H10.625C10.7642 11.35 10.8978 11.4053 10.9962 11.5038C11.0947 11.6022 11.15 11.7358 11.15 11.875ZM11.15 14.375C11.15 14.5142 11.0947 14.6478 10.9962 14.7462C10.8978 14.8447 10.7642 14.9 10.625 14.9H6.875C6.73576 14.9 6.60223 14.8447 6.50377 14.7462C6.40531 14.6478 6.35 14.5142 6.35 14.375C6.35 14.2358 6.40531 14.1022 6.50377 14.0038C6.60223 13.9053 6.73576 13.85 6.875 13.85H10.625C10.7642 13.85 10.8978 13.9053 10.9962 14.0038C11.0947 14.1022 11.15 14.2358 11.15 14.375Z" fill="#00696E" stroke="#00696E" stroke-width="0.2"/>
</svg>
