<svg width="16" height="16" viewBox="0 0 16 16" fill="none" xmlns="http://www.w3.org/2000/svg">
<path d="M4.875 1.125C3.88044 1.125 2.92661 1.52009 2.22335 2.22335C1.52009 2.92661 1.125 3.88044 1.125 4.875V11.125C1.125 12.1196 1.52009 13.0734 2.22335 13.7766C2.92661 14.4799 3.88044 14.875 4.875 14.875H11.125C12.1196 14.875 13.0734 14.4799 13.7766 13.7766C14.4799 13.0734 14.875 12.1196 14.875 11.125V4.875C14.875 3.88044 14.4799 2.92661 13.7766 2.22335C13.0734 1.52009 12.1196 1.125 11.125 1.125H4.875Z" stroke="#4A6365" stroke-width="1.5"/>
<path d="M8 7.5293V11.696" stroke="#4A6365" stroke-width="1.5" stroke-linecap="round"/>
<path d="M7.99967 5.75814C8.57497 5.75814 9.04134 5.29177 9.04134 4.71647C9.04134 4.14118 8.57497 3.6748 7.99967 3.6748C7.42438 3.6748 6.95801 4.14118 6.95801 4.71647C6.95801 5.29177 7.42438 5.75814 7.99967 5.75814Z" fill="#4A6365"/>
</svg>
