<svg width="103" height="49" viewBox="0 0 103 49" fill="none" xmlns="http://www.w3.org/2000/svg">
<path d="M16.5614 21.5602C16.3907 21.5701 16.2211 21.5282 16.0743 21.4401C16.0213 21.4097 15.977 21.3659 15.9459 21.313C15.9147 21.2602 15.8977 21.2002 15.8965 21.1388C15.8965 20.8595 16.14 20.6488 16.6125 20.5385C17.1418 20.4266 17.6405 20.2 18.0739 19.8746C18.3711 19.6149 18.5221 19.1641 18.5221 18.5222V4.86833C18.5221 4.18723 18.393 3.70458 18.1324 3.42528C17.8718 3.14598 17.3871 2.93529 16.671 2.79319C16.4603 2.75758 16.2637 2.66337 16.1035 2.52123C16.0508 2.47659 16.0076 2.42166 15.9767 2.35976C15.9457 2.29785 15.9275 2.23026 15.9233 2.16108C15.9215 2.09501 15.939 2.02986 15.9736 1.97369C16.0083 1.91751 16.0585 1.87279 16.1181 1.84504C16.2697 1.77092 16.4368 1.73477 16.6052 1.73968C17.1443 1.73968 17.6777 1.74948 18.2054 1.76908L19.7447 1.83033C20.2448 1.84993 20.7433 1.85974 21.2402 1.85974C22.1982 1.85974 23.2301 1.84993 24.3358 1.83033C25.4416 1.81073 26.4231 1.80093 27.2805 1.80093C27.9381 1.78133 28.4812 1.74458 28.9123 1.69558C29.3434 1.64658 29.5943 1.61963 29.6747 1.61963C29.8251 1.62208 29.9732 1.65806 30.1082 1.72498C30.1813 1.76455 30.2425 1.82319 30.2854 1.89475C30.3282 1.9663 30.3512 2.04815 30.3518 2.13169C30.4329 2.81279 30.532 3.48408 30.6489 4.14558C30.7599 4.71067 30.8202 5.28464 30.8291 5.86058C30.843 6.01568 30.8006 6.1706 30.7098 6.29669C30.6779 6.33797 30.6374 6.37168 30.5911 6.39539C30.5448 6.41911 30.4938 6.43225 30.4419 6.43389C30.3379 6.43163 30.2376 6.39456 30.1569 6.32854C30.0514 6.23191 29.9682 6.11314 29.9133 5.98063C29.7331 5.50043 29.5707 5.08475 29.4262 4.73358C29.3147 4.43917 29.1495 4.16829 28.9391 3.93488C28.6896 3.66631 28.3964 3.44259 28.072 3.27338C27.6818 3.08271 27.2513 2.99023 26.8177 3.00388H24.2676C23.8927 2.99552 23.5254 3.11177 23.2228 3.33463C23.0765 3.44031 22.9587 3.58099 22.88 3.74397C22.8013 3.90695 22.7643 4.08708 22.7722 4.26808V10.0721C22.7665 10.1665 22.781 10.261 22.8146 10.3493C22.8482 10.4376 22.9002 10.5177 22.967 10.5842C23.1007 10.7042 23.275 10.7682 23.4541 10.763H26.1163C26.6521 10.763 27.0369 10.5989 27.2659 10.273C27.5207 9.88769 27.7176 9.46667 27.8504 9.02354C28.0087 8.64379 28.2182 8.45268 28.4788 8.45268C28.5286 8.46193 28.5761 8.48151 28.618 8.51019C28.6599 8.53888 28.6955 8.57603 28.7223 8.61928C28.7699 8.68587 28.8036 8.76138 28.8216 8.84134C28.8396 8.9213 28.8415 9.00409 28.8271 9.08479C28.8052 9.28569 28.7857 9.52579 28.7662 9.81979L28.7077 10.6601C28.6858 10.9419 28.6761 11.2016 28.6761 11.4441C28.6761 11.6867 28.6761 11.9488 28.6907 12.2404C28.7053 12.5319 28.7175 12.821 28.737 13.1126C28.7564 13.4041 28.7759 13.6687 28.7954 13.9088C28.8224 14.0914 28.8023 14.2778 28.737 14.4503C28.7187 14.5013 28.6858 14.5458 28.6425 14.5781C28.5991 14.6103 28.5473 14.629 28.4934 14.6316C28.1743 14.6316 27.9332 14.3596 27.7627 13.8182C27.6514 13.3474 27.4594 12.8997 27.1952 12.4952C27.0942 12.3511 26.9592 12.2345 26.8023 12.1559C26.6455 12.0772 26.4717 12.0389 26.2965 12.0444H23.5199C23.3168 12.0273 23.1145 12.0867 22.9524 12.211C22.8253 12.3566 22.7606 12.5468 22.7722 12.7402V18.4536C22.7722 19.0759 22.9037 19.512 23.1619 19.7643C23.42 20.0167 23.8292 20.1392 24.3797 20.1392H26.8908C27.3336 20.1436 27.7753 20.0934 28.206 19.9897C28.5834 19.8964 28.9391 19.7299 29.2533 19.4997C29.6111 19.218 29.9191 18.8776 30.1642 18.4928C30.452 18.0507 30.7163 17.5936 30.9558 17.1232C31.0161 17.0081 31.099 16.9064 31.1993 16.8243C31.2417 16.7935 31.2901 16.772 31.3413 16.7615C31.3926 16.7509 31.4455 16.7514 31.4965 16.7631C31.5493 16.7601 31.6016 16.7746 31.6456 16.8042C31.6895 16.8338 31.7227 16.877 31.74 16.9272C31.7805 17.0488 31.8003 17.1764 31.7985 17.3045C31.7899 17.6748 31.7401 18.043 31.6499 18.4021C31.5509 18.8333 31.4259 19.285 31.2748 19.757C31.1238 20.229 30.9899 20.6847 30.873 21.1241C30.8274 21.249 30.7417 21.3551 30.6294 21.4254C30.5146 21.4863 30.3865 21.5174 30.2568 21.5161C29.8768 21.5161 29.328 21.5112 28.6103 21.5014L26.143 21.4548C25.2175 21.4352 24.2709 21.4205 23.3031 21.4107C22.3354 21.4009 21.4334 21.396 20.5972 21.396C20.1783 21.396 19.7399 21.4058 19.282 21.4254C18.8241 21.445 18.3637 21.4695 17.9059 21.5014C17.448 21.5332 16.9925 21.5602 16.5614 21.5602Z" fill="#1C7075"/>
<path d="M33.0287 21.5601C32.8294 21.5681 32.6307 21.5321 32.4466 21.4548C32.3756 21.4229 32.3161 21.3698 32.276 21.3028C32.2359 21.2357 32.2173 21.1579 32.2226 21.0799C32.2184 20.9995 32.2356 20.9195 32.2725 20.848C32.3093 20.7765 32.3643 20.7162 32.432 20.6732C32.6016 20.5712 32.7822 20.489 32.9703 20.4282C33.5197 20.2813 34.0369 20.032 34.495 19.6932C34.9375 19.357 35.2789 18.9042 35.4814 18.3849C35.9994 17.222 36.4865 16.0933 36.9427 14.999C37.399 13.9047 37.8309 12.8136 38.2385 11.7258C38.6574 10.6429 39.0755 9.54531 39.4928 8.43301C39.9142 7.32071 40.3404 6.16186 40.7812 4.95891C40.9828 4.43834 41.152 3.90566 41.2878 3.36396C41.3682 3.00381 41.4267 2.76371 41.4681 2.64366C41.8066 2.56281 42.1159 2.48196 42.3936 2.39866C42.7181 2.305 43.0376 2.19461 43.3508 2.06791C43.6369 1.93673 43.8995 1.75873 44.1277 1.54116C44.347 1.33046 44.5174 1.15652 44.6368 1.01687C44.7066 0.978891 44.7824 0.953204 44.8609 0.940918C44.9315 0.940918 44.9948 0.985014 45.0557 1.10506C45.1166 1.22511 45.1702 1.35006 45.2213 1.48236C45.2725 1.61466 45.3139 1.74697 45.3553 1.88907C45.7742 3.27087 46.2126 4.6739 46.6705 6.09816C47.1284 7.52243 47.5822 8.9369 48.032 10.3416C48.4802 11.7462 48.9234 13.1044 49.3618 14.4159C49.8003 15.7275 50.2062 16.9762 50.5796 18.162C50.712 18.5902 50.9254 18.9887 51.208 19.3355C51.4554 19.6251 51.7555 19.8646 52.0922 20.0411C52.438 20.2191 52.8034 20.3556 53.1809 20.4478C53.3743 20.4962 53.5574 20.5792 53.7216 20.6928C53.7889 20.7397 53.8433 20.8029 53.88 20.8765C53.9166 20.9502 53.9341 21.0319 53.931 21.1142C53.9303 21.1741 53.9131 21.2326 53.8813 21.2832C53.8494 21.3338 53.8043 21.3745 53.7508 21.4009C53.6 21.477 53.4322 21.5125 53.2637 21.5038C52.8862 21.5038 52.4112 21.5038 51.8437 21.4744C51.2762 21.445 50.7039 21.4303 50.1242 21.4009C49.5445 21.3715 49.0282 21.3543 48.5703 21.3543C48.1708 21.3543 47.713 21.3543 47.1942 21.3837L45.6403 21.445C45.1215 21.4646 44.666 21.4744 44.2934 21.4744C44.1249 21.4797 43.9577 21.4435 43.8063 21.369C43.7437 21.3438 43.6902 21.3001 43.6528 21.2437C43.6154 21.1872 43.5959 21.1208 43.5968 21.053C43.5981 20.9722 43.6193 20.8931 43.6584 20.8225C43.6975 20.752 43.7533 20.6923 43.8209 20.6487C43.9765 20.5352 44.1554 20.4581 44.3445 20.4233C44.9142 20.3473 45.4605 20.1466 45.9447 19.8353C46.2735 19.5903 46.388 19.2081 46.2881 18.7083C46.2086 18.3261 46.1136 17.9178 46.0032 17.4833C45.8927 17.0488 45.7734 16.5932 45.6451 16.1162C45.5152 15.6426 45.3902 15.1958 45.27 14.7761C45.2458 14.6458 45.184 14.5257 45.0922 14.4306C44.9684 14.3491 44.8208 14.3119 44.6733 14.3253H39.3686C39.309 14.3221 39.2493 14.3311 39.1932 14.3518C39.1371 14.3724 39.0858 14.4042 39.0422 14.4453C38.9466 14.5563 38.8841 14.6922 38.862 14.8373C38.7816 15.1191 38.6866 15.4082 38.577 15.7095C38.4674 16.0109 38.3627 16.322 38.2628 16.643C38.163 16.9639 38.0729 17.2677 37.9925 17.5593C37.9121 17.8508 37.8439 18.1154 37.7855 18.3555C37.6637 18.9386 37.7384 19.3853 38.0095 19.6957C38.2807 20.006 38.8141 20.251 39.6097 20.4307C40.1066 20.5695 40.355 20.79 40.355 21.0922C40.3549 21.1516 40.3382 21.2097 40.3067 21.26C40.2753 21.3102 40.2304 21.3506 40.1772 21.3764C40.0196 21.4555 39.8441 21.4918 39.6682 21.4817C39.1307 21.4817 38.6127 21.467 38.1143 21.4376C37.615 21.4082 37.0767 21.3911 36.4995 21.3911C35.9202 21.3908 35.3414 21.4211 34.7653 21.4817C34.1883 21.5394 33.6086 21.5655 33.0287 21.5601ZM40.187 12.8087H44.2227C44.5223 12.8087 44.6709 12.7499 44.6709 12.6299C44.6735 12.5739 44.6686 12.5179 44.6563 12.4633C44.6563 12.4339 44.6319 12.3775 44.6124 12.2991L42.5495 5.43911C42.4691 5.17941 42.3985 5.04956 42.34 5.04956C42.2816 5.04956 42.2402 5.16962 42.1598 5.40972L39.6998 12.2991C39.6657 12.3765 39.6459 12.4596 39.6414 12.5441C39.6411 12.5926 39.657 12.6397 39.6866 12.6779C39.7162 12.7162 39.7578 12.7432 39.8046 12.7548C39.9279 12.795 40.0573 12.8133 40.187 12.8087Z" fill="#1C7075"/>
<path d="M60.1812 21.864C59.3592 21.8658 58.5404 21.7595 57.7456 21.5479C56.9698 21.3431 56.236 21.0022 55.578 20.541C55.4512 20.4557 55.3357 20.3544 55.2346 20.2396C55.1271 20.1251 55.0405 19.9924 54.9788 19.8476C54.7791 19.2228 54.654 18.5764 54.6062 17.9219C54.5366 17.1826 54.5114 16.4397 54.5307 15.6973C54.5278 15.6348 54.5414 15.5727 54.57 15.5172C54.5987 15.4617 54.6414 15.4148 54.6938 15.3813C54.8156 15.3073 54.9561 15.2707 55.0982 15.2759C55.2343 15.2644 55.3706 15.2961 55.4879 15.3666C55.5828 15.4467 55.6551 15.5507 55.6973 15.6679C56.1552 17.1722 56.8047 18.3605 57.6458 19.2327C58.0197 19.644 58.4746 19.9728 58.9815 20.198C59.4884 20.4232 60.0363 20.54 60.5904 20.541C61.1597 20.5592 61.7216 20.4074 62.2052 20.1049C62.6341 19.824 62.9759 19.4276 63.1916 18.9607C63.4081 18.5055 63.5212 18.0076 63.5229 17.503C63.5588 16.9299 63.4423 16.3575 63.1855 15.8447C62.9286 15.3319 62.5407 14.8971 62.0615 14.585C61.4455 14.1495 60.8064 13.7479 60.1471 13.3821C59.3353 12.9198 58.538 12.4233 57.7554 11.8925C56.9991 11.3816 56.3489 10.7275 55.841 9.96676C55.3209 9.13501 55.0605 8.16561 55.0933 7.18356C55.0723 6.11407 55.3802 5.06415 55.975 4.17741C56.5892 3.29476 57.4313 2.59757 58.4106 2.16106C59.5197 1.66038 60.7242 1.40953 61.9397 1.42606C62.6492 1.42373 63.3564 1.50597 64.0465 1.67106C64.5906 1.79672 65.1253 1.96046 65.6467 2.16106C65.8404 2.21322 66.0164 2.31738 66.1558 2.4624C66.2839 2.64258 66.3749 2.84665 66.4237 3.06266C66.5244 3.48406 66.6145 3.99039 66.694 4.58166C66.7754 5.21534 66.8152 5.85372 66.8134 6.49266C66.8134 6.75481 66.6331 6.88465 66.2751 6.88465C66.1036 6.88286 65.9355 6.83553 65.788 6.74745C65.717 6.71382 65.6538 6.66576 65.6022 6.60631C65.5507 6.54685 65.5119 6.47729 65.4884 6.40201C65.1507 5.21784 64.6636 4.32605 64.0271 3.72661C63.3889 3.12367 62.5397 2.79874 61.6645 2.82256C61.1261 2.80672 60.5907 2.90957 60.096 3.12391C59.6752 3.31728 59.3245 3.63749 59.0925 4.04021C58.8341 4.53558 58.7106 5.09093 58.7345 5.64986C58.743 6.15421 58.9285 6.63929 59.2582 7.01941C59.6745 7.51116 60.1574 7.94166 60.6927 8.29831C61.3016 8.71971 62.0047 9.18031 62.802 9.68011C63.6977 10.1762 64.5351 10.772 65.2984 11.4564C65.903 11.9981 66.3912 12.6584 66.733 13.3968C67.0563 14.1614 67.2141 14.9866 67.1958 15.8174C67.1958 17.1632 66.9027 18.2861 66.3165 19.1861C65.7214 20.0931 64.8659 20.7963 63.8639 21.2025C62.6919 21.6656 61.4402 21.8905 60.1812 21.864Z" fill="#1C7075"/>
<path d="M74.0568 21.5918C73.844 21.6027 73.6321 21.5562 73.4431 21.457C73.3812 21.4291 73.3279 21.3851 73.2885 21.3295C73.2491 21.274 73.2251 21.2089 73.219 21.141C73.2183 21.0537 73.2419 20.9681 73.2871 20.8936C73.3323 20.8191 73.3973 20.7589 73.4747 20.7196C73.674 20.6094 73.8922 20.538 74.1177 20.5089C74.8752 20.3496 75.4135 20.0728 75.7325 19.6832C76.0715 19.2402 76.2441 18.6909 76.2196 18.1324V13.9233C76.2326 13.3517 76.1307 12.7834 75.9201 12.2524C75.7418 11.8215 75.5317 11.4047 75.2917 11.0053L71.5238 5.04937C71.346 4.78722 71.1414 4.50302 70.9125 4.19187C70.6828 3.88046 70.4225 3.59317 70.1355 3.33437C69.8489 3.07573 69.5048 2.89006 69.1321 2.79293C68.9323 2.74824 68.7408 2.67216 68.5646 2.56752C68.4969 2.52455 68.4418 2.46422 68.405 2.39274C68.3682 2.32126 68.351 2.24122 68.3551 2.16083C68.3533 2.09475 68.3708 2.0296 68.4054 1.97343C68.4401 1.91726 68.4903 1.87254 68.5499 1.84478C68.6932 1.77184 68.8522 1.73564 69.0127 1.73942C69.8091 1.73942 70.5739 1.76637 71.3022 1.81537C72.0304 1.86437 72.8098 1.89132 73.6476 1.89132C74.2663 1.89132 74.8654 1.86437 75.411 1.81537C75.9566 1.76637 76.5484 1.73942 77.1476 1.73942C77.3416 1.73954 77.5339 1.77526 77.7151 1.84478C77.8953 1.91583 77.983 2.02118 77.983 2.16083C77.9803 2.24509 77.9536 2.3268 77.9061 2.39627C77.8586 2.46575 77.7923 2.52008 77.7151 2.55282C77.5169 2.66115 77.3057 2.74349 77.0867 2.79782C76.7043 2.87154 76.335 3.00201 75.9907 3.18492C75.8787 3.25292 75.7874 3.3506 75.7268 3.46726C75.6662 3.58393 75.6387 3.71509 75.6473 3.84643C75.6713 4.22827 75.7839 4.59913 75.9761 4.92932L78.9962 10.2213C79.2154 10.6427 79.4151 10.8534 79.5954 10.8534C79.6517 10.8492 79.7064 10.8323 79.7553 10.8039C79.8042 10.7754 79.8461 10.7363 79.8779 10.6893C79.968 10.579 80.0825 10.4222 80.2213 10.2213C80.6792 9.40057 81.1201 8.59698 81.5365 7.81543C81.953 7.03388 82.3841 6.18127 82.8225 5.26007C82.9378 5.04899 83.0332 4.82754 83.1075 4.59858C83.1733 4.40436 83.2086 4.20102 83.2122 3.99587C83.2232 3.81874 83.183 3.6422 83.0966 3.48747C83.0102 3.33274 82.8812 3.20641 82.7251 3.12367C82.3977 2.9428 82.0373 2.8303 81.6656 2.79293C81.4485 2.76741 81.2392 2.69557 81.0519 2.58222C80.8424 2.46217 80.7377 2.32253 80.7377 2.16083C80.7377 1.99913 80.8278 1.91583 81.0056 1.85948C81.1993 1.79778 81.4015 1.76718 81.6047 1.76882C82.1625 1.76882 82.6569 1.79087 83.0856 1.83007C83.5143 1.86927 83.9868 1.89132 84.5055 1.89132C85.0204 1.89214 85.5348 1.85694 86.0448 1.78597C86.545 1.71452 87.0497 1.67932 87.5549 1.68062C87.7691 1.67571 87.9823 1.71145 88.1833 1.78597C88.2602 1.80506 88.3285 1.84941 88.3775 1.91198C88.4264 1.97456 88.4532 2.05179 88.4536 2.13143C88.4536 2.31273 88.344 2.44747 88.1248 2.53812C87.9056 2.62877 87.6645 2.71207 87.4063 2.78312C86.8665 2.93605 86.3672 3.20805 85.945 3.57937C85.5074 3.97485 85.1343 4.437 84.8392 4.94893L83.882 6.48263C83.5824 6.97263 83.2877 7.43077 83.0003 7.88157C82.7129 8.33237 82.4207 8.79298 82.1333 9.26583C81.8459 9.73868 81.5487 10.2458 81.2516 10.7848C81.0792 11.0681 80.9294 11.3647 80.8034 11.6717C80.6819 11.9618 80.5912 12.264 80.5331 12.5733C80.4694 12.9356 80.4392 13.303 80.443 13.6709V18.0809C80.443 18.8225 80.6053 19.359 80.9301 19.6906C81.2491 20.0213 81.7874 20.2884 82.5473 20.4868C82.7672 20.5356 82.9818 20.6062 83.1879 20.6975C83.2655 20.7283 83.3318 20.7825 83.3776 20.8527C83.4233 20.9229 83.4464 21.0056 83.4436 21.0895C83.4417 21.1605 83.4196 21.2294 83.3799 21.288C83.3402 21.3467 83.2845 21.3926 83.2195 21.4203C83.0374 21.5077 82.8367 21.549 82.635 21.5403C82.1771 21.5403 81.6989 21.5199 81.2004 21.4791C80.7133 21.4399 80.2091 21.4056 79.7196 21.3762C79.23 21.3468 78.7795 21.3296 78.3605 21.3296C77.9416 21.3296 77.4618 21.3443 76.9844 21.3762C76.507 21.408 76.0102 21.4448 75.5231 21.4962C75.0359 21.5477 74.5147 21.5918 74.0568 21.5918Z" fill="#1C7075"/>
<path d="M5.87913 47.8901C5.09071 47.8981 4.30666 47.7714 3.56044 47.5152C2.87024 47.273 2.22735 46.9115 1.66068 46.447C1.57914 46.3623 1.50423 46.2714 1.4366 46.1751C1.36688 46.0732 1.31193 45.9618 1.27342 45.8443C1.15953 45.3307 1.09429 44.8073 1.07857 44.2812C1.04934 43.6393 1.01281 43.1199 0.973839 42.6863C0.97162 42.6219 0.987319 42.5583 1.01917 42.5024C1.05101 42.4466 1.09774 42.4008 1.15407 42.3702C1.28155 42.2973 1.42642 42.2609 1.573 42.2649C1.67743 42.2659 1.78013 42.2919 1.87257 42.3408C1.91961 42.3643 1.96034 42.3988 1.99129 42.4414C2.02224 42.4841 2.04251 42.5336 2.05037 42.5858C2.44981 44.131 3.04247 45.2343 3.82836 45.8958C4.40414 46.4259 5.12956 46.7628 5.90414 46.8598C6.67871 46.9568 7.46411 46.8092 8.15154 46.4372C8.6856 46.1394 9.12539 45.6961 9.42049 45.1583C9.74098 44.5634 9.90135 43.8945 9.88569 43.2179C9.91338 42.5285 9.77465 41.8425 9.48138 41.2187C9.20027 40.6921 8.80687 40.2344 8.32934 39.8786C7.83248 39.4997 7.22521 39.0913 6.50752 38.6536C5.72813 38.1522 4.9601 37.6458 4.20344 37.1346C3.47937 36.6553 2.84254 36.0545 2.32072 35.3583C1.80918 34.6472 1.54624 33.7857 1.573 32.9083C1.55807 31.9395 1.79482 30.9835 2.25983 30.1349C2.74725 29.2916 3.46948 28.6102 4.3374 28.1749C5.26617 27.6849 6.42714 27.4399 7.8203 27.4399C8.45109 27.4294 9.08038 27.5052 9.69084 27.6653C10.1224 27.782 10.5463 27.926 10.9598 28.0965C11.119 28.1587 11.2586 28.2628 11.3641 28.3979C11.4682 28.5311 11.5436 28.6846 11.5857 28.8487C11.7075 29.2701 11.8374 29.7519 11.9754 30.2942C12.1093 30.7945 12.1796 31.3098 12.1849 31.8279C12.1849 32.0484 12.0363 32.1586 11.7367 32.1586C11.5554 32.1589 11.3764 32.1179 11.2131 32.0386C11.1434 32.012 11.0796 31.9717 11.0257 31.9199C10.9717 31.8682 10.9286 31.806 10.8989 31.7372C10.5795 30.8349 10.0824 30.0066 9.43754 29.3019C9.15835 29.0225 8.82522 28.8036 8.4587 28.6586C8.09217 28.5137 7.70001 28.4458 7.30639 28.4591C6.73212 28.4542 6.16285 28.5667 5.63314 28.7899C5.10988 29.0127 4.66644 29.3904 4.36176 29.8728C4.00711 30.4817 3.83775 31.1819 3.87464 31.8867C3.87371 32.4852 4.07947 33.0654 4.45674 33.5282C4.89995 34.0671 5.4194 34.5376 5.99848 34.9247C6.63336 35.3689 7.32101 35.8206 8.06143 36.2795C8.76692 36.706 9.45057 37.168 10.1098 37.6638C10.7646 38.1508 11.3224 38.7575 11.7538 39.4523C12.2028 40.2218 12.4258 41.1036 12.3968 41.9954C12.4214 43.0881 12.1413 44.166 11.5882 45.1069C11.0483 46.0033 10.258 46.7199 9.31576 47.1673C8.24076 47.671 7.0647 47.9184 5.87913 47.8901Z" fill="#1C7075"/>
<path d="M25.8531 47.8608C24.4742 47.8604 23.1065 47.6115 21.8149 47.1258C20.5441 46.6629 19.3686 45.9696 18.3466 45.08C17.3298 44.1877 16.51 43.0911 15.9402 41.8607C15.3403 40.5562 15.039 39.1329 15.0585 37.6957C15.0451 36.2873 15.3622 34.8956 15.984 33.6336C16.6032 32.3867 17.4684 31.2796 18.5268 30.38C19.6195 29.4463 20.8702 28.7176 22.2192 28.2289C23.6237 27.7137 25.1082 27.454 26.6032 27.4621C27.2619 27.4565 27.9205 27.486 28.5761 27.5503C29.1151 27.6124 29.6388 27.694 30.147 27.7953C30.6553 27.8966 31.2479 28.0419 31.925 28.2314C32.1711 28.2818 32.3957 28.4077 32.568 28.5915C32.7093 28.7832 32.7876 29.0145 32.7921 29.253C32.8335 29.7161 32.8822 30.211 32.9431 30.7426C33.004 31.2743 33.043 31.9309 33.0624 32.7026C33.0715 32.7737 33.0574 32.8458 33.0223 32.908C32.9872 32.9703 32.9329 33.0195 32.8676 33.0481C32.7961 33.0941 32.7158 33.1246 32.632 33.1376C32.5481 33.1507 32.4625 33.1461 32.3805 33.124C32.2918 33.0983 32.2123 33.0479 32.1511 32.9785C32.0898 32.9091 32.0495 32.8236 32.0346 32.732C31.8646 32.0593 31.6347 31.4033 31.3478 30.772C31.088 30.2192 30.685 29.747 30.1811 29.4049C29.6293 29.0407 29.0161 28.7808 28.3715 28.6381C27.6219 28.4618 26.8542 28.3754 26.0845 28.3808C24.9736 28.372 23.875 28.614 22.8695 29.0889C21.8992 29.5468 21.0341 30.2025 20.3291 31.0146C19.6197 31.8269 19.0575 32.7581 18.6681 33.7659C18.2711 34.7802 18.0686 35.8609 18.0713 36.9509C18.0722 38.1783 18.2687 39.3975 18.6534 40.5622C19.0283 41.7171 19.5948 42.7998 20.3291 43.7644C21.0332 44.7012 21.921 45.4826 22.9377 46.06C23.965 46.6369 25.1248 46.9326 26.3012 46.9175C27.735 46.9175 28.9211 46.5909 29.8596 45.9375C30.8551 45.209 31.673 44.2623 32.2514 43.169C32.3049 43.0511 32.3915 42.9514 32.5005 42.8822C32.6095 42.813 32.7363 42.7773 32.8652 42.7795C33.1331 42.7795 33.2695 42.9387 33.2695 43.2695C33.2544 43.5284 33.2144 43.7852 33.1501 44.0363C33.0697 44.3891 32.965 44.7591 32.8359 45.1511C32.7068 45.5431 32.5924 45.8861 32.4608 46.1874C32.3773 46.386 32.2612 46.569 32.1174 46.7289C31.9304 46.8552 31.7226 46.9473 31.5037 47.0008C30.6521 47.329 29.7638 47.5511 28.8586 47.6623C27.8623 47.7961 26.8582 47.8624 25.8531 47.8608Z" fill="#1C7075"/>
<path d="M53.9607 48.0398C53.43 48.0425 52.9002 47.9975 52.3775 47.905C51.8944 47.8219 51.429 47.6562 51.0014 47.415C50.5592 47.1525 50.1647 46.8161 49.8348 46.4203C49.3574 45.8192 48.8987 45.2427 48.4587 44.6906C48.0186 44.1385 47.555 43.5024 47.0679 42.7821C46.5808 42.0585 45.9881 41.1357 45.2899 40.0136C44.9824 39.5061 44.5359 39.0986 44.0039 38.84C43.5916 38.6304 43.1546 38.474 42.7033 38.3745C42.3534 38.2961 41.9986 38.2412 41.6414 38.2104C41.5758 38.1953 41.5072 38.2017 41.4454 38.2286C41.3837 38.2555 41.332 38.3014 41.298 38.3598C41.2236 38.4979 41.1874 38.6536 41.1933 38.8106V44.1002C41.1782 44.6883 41.334 45.2681 41.6414 45.7686C41.9402 46.2423 42.459 46.5485 43.1978 46.6874C43.4554 46.7229 43.707 46.7938 43.9455 46.8981C44.0141 46.9227 44.0739 46.9673 44.1172 47.0262C44.1606 47.0851 44.1856 47.1556 44.1891 47.2288C44.1891 47.3489 44.1087 47.4346 43.9455 47.4738C43.741 47.5305 43.5292 47.5561 43.3171 47.5498C42.9022 47.5569 42.4872 47.5364 42.075 47.4885L41.298 47.3832C40.9955 47.35 40.6913 47.3352 40.3871 47.3391C39.9 47.3391 39.4445 47.3538 39.0548 47.3832C38.6651 47.4126 38.2779 47.4493 37.8906 47.4885C37.4284 47.5331 36.9642 47.5535 36.4999 47.5498C36.2878 47.5565 36.0759 47.5309 35.8715 47.4738C35.7107 47.4248 35.6279 47.3391 35.6279 47.2288C35.6279 46.9887 35.9527 46.8082 36.6022 46.6874C37.3605 46.5485 37.9133 46.3182 38.2608 45.9965C38.6083 45.6747 38.7828 45.143 38.7845 44.4015V31.588C38.7972 31.0095 38.7622 30.431 38.6797 29.8583C38.6613 29.6935 38.6084 29.5345 38.5244 29.3917C38.4405 29.249 38.3274 29.1258 38.1926 29.0302C37.8067 28.8323 37.3832 28.7196 36.9505 28.6995C36.6871 28.6841 36.431 28.6069 36.2027 28.4741C36.1333 28.4375 36.0744 28.3836 36.0317 28.3175C35.9891 28.2515 35.9641 28.1754 35.9592 28.0968C35.9592 27.9767 36.0371 27.8934 36.2027 27.8518C36.4074 27.796 36.6191 27.7704 36.8311 27.7758H38.0489C38.3168 27.7758 38.5726 27.7758 38.8113 27.793C39.0499 27.8101 39.369 27.8077 39.7684 27.8077C40.1076 27.8099 40.4466 27.7944 40.7841 27.7611C41.0837 27.7317 41.4173 27.7072 41.7876 27.6876C42.1578 27.668 42.6303 27.6558 43.2075 27.6558C45.3995 27.6558 47.0687 28.0641 48.2151 28.8808C49.3615 29.6974 49.9411 30.9322 49.9541 32.5852C49.9765 33.3954 49.7911 34.1978 49.4158 34.9151C49.0769 35.5435 48.6204 36.1001 48.0714 36.5542C47.5655 36.976 47.014 37.3392 46.4274 37.6371C46.347 37.6591 46.3129 37.7032 46.3226 37.7743C46.3419 37.8618 46.3774 37.945 46.4274 38.0193C47.0444 38.9617 47.637 39.8543 48.2054 40.6971C48.7836 41.5525 49.4081 42.3753 50.0759 43.1618C50.8292 44.045 51.6378 44.8789 52.4969 45.6584C52.9385 46.0803 53.4871 46.3719 54.0824 46.5012C54.6944 46.6083 55.3148 46.6591 55.9359 46.6531C56.2355 46.6531 56.3841 46.7633 56.3841 46.9838C56.3838 47.1284 56.3411 47.2696 56.2614 47.3899C56.1817 47.5102 56.0685 47.6041 55.9359 47.66C55.6153 47.8159 55.2713 47.9177 54.9179 47.9614C54.6007 48.0076 54.281 48.0337 53.9607 48.0398ZM42.7788 37.5048C43.3654 37.5145 43.9481 37.4065 44.4927 37.187C45.0372 36.9675 45.5328 36.6409 45.9504 36.2263C46.3679 35.8118 46.6991 35.3176 46.9244 34.7727C47.1498 34.2279 47.2648 33.6432 47.2628 33.0531C47.2704 32.2896 47.1654 31.5292 46.951 30.7967C46.7419 30.116 46.2956 29.534 45.6943 29.1576C45.0659 28.7493 44.1241 28.5443 42.869 28.5427C42.2284 28.5427 41.8119 28.7485 41.6122 29.1576C41.4125 29.5668 41.2931 30.2969 41.2542 31.3381C41.2347 31.8281 41.2176 32.5166 41.2079 33.3692C41.1981 34.2218 41.1933 35.2483 41.1933 36.4537C41.1933 36.9437 41.3321 37.2549 41.6122 37.3553C41.9899 37.4718 42.384 37.5248 42.7788 37.5121V37.5048Z" fill="#1C7075"/>
<path d="M57.6698 47.5593C57.4577 47.566 57.2459 47.5404 57.0414 47.4834C56.8807 47.4344 56.7979 47.3486 56.7979 47.2384C56.7979 46.9983 57.1267 46.8178 57.7843 46.6969C58.4094 46.6112 59.0045 46.3742 59.5184 46.006C59.9179 45.6794 60.1176 45.1673 60.1176 44.4699V30.8699C60.1176 30.1692 59.9714 29.667 59.684 29.3656C59.3966 29.0643 58.8705 28.8438 58.1131 28.7041C57.4555 28.5833 57.1267 28.3824 57.1267 28.1014C57.1267 27.9814 57.207 27.8981 57.3702 27.8564C57.5749 27.8007 57.7866 27.7751 57.9986 27.7805C58.5369 27.7805 58.9728 27.7805 59.3284 27.8123C59.684 27.8442 60.0128 27.8466 60.3319 27.8564C60.651 27.8662 61.0382 27.8711 61.4986 27.8711C61.9589 27.8711 62.295 27.8711 62.5751 27.8564C62.8552 27.8417 63.1523 27.8319 63.4714 27.8123C63.7905 27.7927 64.2191 27.7805 64.7574 27.7805C64.9686 27.7753 65.1794 27.8009 65.3833 27.8564C65.5441 27.9079 65.6269 27.9912 65.6269 28.1014C65.6224 28.1783 65.5974 28.2525 65.5546 28.3164C65.5117 28.3802 65.4526 28.4312 65.3833 28.464C65.1516 28.5901 64.8991 28.6731 64.638 28.709C63.9009 28.8495 63.3626 29.07 63.0232 29.3705C62.6823 29.6719 62.5142 30.1741 62.5142 30.8748V44.4699C62.5142 45.1739 62.7237 45.6859 63.1426 46.006C63.66 46.3677 64.2535 46.6042 64.8767 46.6969C65.1344 46.7325 65.3859 46.8034 65.6245 46.9076C65.6931 46.9323 65.7528 46.9769 65.7962 47.0358C65.8395 47.0947 65.8645 47.1652 65.868 47.2384C65.868 47.3584 65.7876 47.4442 65.6245 47.4834C65.4199 47.5401 65.2081 47.5657 64.9961 47.5593C64.457 47.5593 64.0137 47.5446 63.6662 47.5152C63.3155 47.4834 62.9818 47.4589 62.6628 47.4393C62.3437 47.4197 61.9564 47.4099 61.4986 47.4099C60.9993 47.4099 60.5657 47.4099 60.1955 47.4393C59.8253 47.4687 59.4478 47.4834 59.0605 47.5152C58.6733 47.5471 58.2105 47.5593 57.6698 47.5593Z" fill="#1C7075"/>
<path d="M67.9872 47.5597C67.7751 47.5664 67.5633 47.5408 67.3588 47.4837C67.198 47.4347 67.1152 47.349 67.1152 47.2387C67.1152 46.9937 67.4465 46.8173 68.1041 46.6973C68.8624 46.5584 69.4152 46.3282 69.7627 46.0064C70.1102 45.6846 70.2848 45.153 70.2864 44.4114V31.7082C70.2864 30.8049 70.1719 30.1132 69.943 29.633C69.714 29.1528 69.2204 28.8417 68.4621 28.6996C68.2004 28.6634 67.9471 28.5804 67.7144 28.4546C67.6453 28.4215 67.5863 28.3704 67.5435 28.3067C67.5007 28.2429 67.4756 28.1688 67.4708 28.092C67.4708 27.9719 67.5512 27.8886 67.7144 27.847C67.9191 27.7915 68.1308 27.7659 68.3428 27.771H69.5606C69.8309 27.771 70.0842 27.771 70.3229 27.7882C70.5616 27.8053 70.8807 27.8029 71.2801 27.8029C71.6795 27.8029 72.0839 27.7882 72.4979 27.7563C72.912 27.7245 73.2919 27.6975 73.6499 27.6657C74.008 27.6338 74.327 27.6216 74.6071 27.6216C76.8804 27.6216 78.7095 28.0928 80.0945 29.0352C80.7516 29.4534 81.2888 30.0367 81.6532 30.7276C82.0175 31.4185 82.1964 32.1931 82.1721 32.9748C82.1845 34.143 81.9391 35.2994 81.4536 36.3607C80.9821 37.3866 80.2194 38.2493 79.2616 38.8401C78.2743 39.4624 77.0135 39.7736 75.4791 39.7736C75.1343 39.7943 74.7899 39.7269 74.478 39.5776C74.2345 39.4477 74.1322 39.3326 74.1322 39.2027C74.1403 39.1486 74.1591 39.0966 74.1876 39.0499C74.216 39.0032 74.2535 38.9627 74.2978 38.9308C74.3807 38.8438 74.4926 38.7906 74.612 38.7813C74.7119 38.7813 74.8556 38.7813 75.0748 38.8107C75.294 38.8401 75.5887 38.8401 75.9881 38.8401C76.5291 38.8585 77.0649 38.7279 77.5375 38.4623C78.0101 38.1968 78.4016 37.8064 78.6697 37.3334C79.277 36.3289 79.5814 34.9406 79.5831 33.1684C79.5831 31.5661 79.1138 30.3778 78.1753 29.6036C77.2368 28.8294 76.0409 28.444 74.5876 28.4472C74.1129 28.4295 73.6409 28.527 73.2115 28.7314C73.0363 28.8239 72.8919 28.966 72.7962 29.1402C72.7005 29.3144 72.6578 29.513 72.6733 29.7114V44.0611C72.6447 44.675 72.8018 45.2832 73.1239 45.8055C73.421 46.2465 73.939 46.5372 74.6778 46.6777C74.9354 46.7133 75.187 46.7842 75.4255 46.8884C75.4941 46.9131 75.5539 46.9577 75.5972 47.0165C75.6406 47.0754 75.6656 47.1459 75.6691 47.2191C75.6691 47.3392 75.5887 47.4249 75.4255 47.4641C75.221 47.5208 75.0092 47.5464 74.7971 47.5401C74.383 47.5473 73.9688 47.5268 73.5574 47.4788L72.778 47.3735C72.4755 47.3403 72.1713 47.3255 71.8671 47.3294C71.3678 47.3294 70.9245 47.3441 70.5348 47.3735C70.1451 47.4029 69.7579 47.4396 69.3706 47.4788C68.9112 47.5297 68.4494 47.5567 67.9872 47.5597Z" fill="#1C7075"/>
<path d="M89.3055 47.5596C89.0935 47.566 88.8816 47.5404 88.6771 47.4837C88.5188 47.4347 88.4336 47.3489 88.4336 47.2387C88.437 47.1655 88.462 47.095 88.5054 47.0361C88.5488 46.9772 88.6085 46.9326 88.6771 46.9079C88.9156 46.8037 89.1672 46.7328 89.4249 46.6972C90.0584 46.6119 90.6578 46.3581 91.1614 45.9622C91.5576 45.6127 91.7565 45.0761 91.7582 44.3526V32.671C91.7582 31.7473 91.7387 31.0417 91.6997 30.5493C91.6868 30.1951 91.6211 29.845 91.5049 29.5105C91.4778 29.4264 91.4286 29.3514 91.3626 29.2931C91.2966 29.2349 91.2161 29.1957 91.1298 29.1797C90.8393 29.12 90.5444 29.0847 90.2481 29.0744C89.938 29.0646 89.5239 29.0597 89.0059 29.0597H87.603C87.1149 29.0613 86.6317 29.1586 86.1806 29.3463C85.7437 29.51 85.3787 29.8243 85.1504 30.2332C85.0895 30.3337 84.9896 30.4782 84.8508 30.6693C84.7195 30.8485 84.5693 31.0128 84.4027 31.1593C84.2722 31.2884 84.0984 31.3636 83.9155 31.37C83.879 31.3709 83.8431 31.3597 83.8136 31.3379C83.7841 31.3162 83.7626 31.2853 83.7523 31.25C83.7212 31.1627 83.7055 31.0707 83.7061 30.978C83.7084 30.7687 83.7602 30.563 83.8571 30.3778C84.1024 29.8784 84.3069 29.3597 84.4684 28.8269C84.6151 28.2995 84.7202 27.7613 84.7826 27.2173C84.824 26.8767 84.8971 26.6758 85.0067 26.617C85.0927 26.5634 85.1906 26.5322 85.2916 26.5264C85.372 26.5264 85.4962 26.6464 85.6667 26.8865C85.8046 27.0785 85.9291 27.2799 86.0394 27.4892C86.1587 27.6901 86.4315 27.8396 86.8626 27.94C87.2785 28.0388 87.7043 28.0889 88.1316 28.0895H98.6655C99.2362 28.0995 99.8067 28.0593 100.37 27.9694C100.761 27.9051 101.142 27.7941 101.505 27.6387C101.718 27.5373 101.914 27.4061 102.09 27.2491C102.249 27.1052 102.458 27.0296 102.672 27.0384C102.733 27.0384 102.782 27.1119 102.823 27.2638C102.862 27.4158 102.882 27.5723 102.882 27.7293C102.877 27.8707 102.863 28.0116 102.838 28.1507C102.806 28.332 102.782 28.4717 102.762 28.5721C102.723 28.8355 102.668 29.0965 102.599 29.3537C102.554 29.4914 102.519 29.6322 102.494 29.7751C102.468 29.9642 102.458 30.1551 102.463 30.3459V30.7085C102.457 30.9188 102.417 31.1266 102.343 31.3235C102.265 31.5538 102.144 31.6689 101.985 31.6689C101.827 31.6689 101.742 31.5611 101.656 31.3382C101.554 31.0439 101.472 30.7426 101.413 30.4366C101.372 30.2266 101.287 30.028 101.163 29.8542C101.039 29.6804 100.879 29.5356 100.694 29.4296C100.295 29.1846 99.6178 29.0523 98.6606 29.0523H95.6454C95.3069 29.0327 94.9687 29.0948 94.6589 29.2336C94.4397 29.3537 94.3009 29.655 94.24 30.1352C94.1662 30.9251 94.1361 31.7185 94.1499 32.5117V44.3452C94.1499 45.0671 94.3594 45.6037 94.7783 45.9549C95.285 46.3438 95.8818 46.5968 96.5124 46.6899C96.7701 46.7254 97.0216 46.7963 97.2602 46.9006C97.3288 46.9252 97.3885 46.9698 97.4319 47.0287C97.4753 47.0876 97.5003 47.1581 97.5037 47.2313C97.5037 47.3514 97.4233 47.4371 97.2602 47.4763C97.0557 47.5332 96.8438 47.5588 96.6318 47.5523C96.0943 47.5523 95.6511 47.5376 95.3019 47.5082C94.9512 47.4763 94.62 47.4518 94.3009 47.4322C93.9819 47.4126 93.5922 47.4028 93.1343 47.4028C92.6342 47.4028 92.2006 47.4126 91.8337 47.4322C91.4634 47.4518 91.0859 47.4763 90.6962 47.5082C90.3065 47.54 89.8438 47.5596 89.3055 47.5596Z" fill="#1C7075"/>
</svg>
