<svg width="80" height="38" viewBox="0 0 80 38" fill="none" xmlns="http://www.w3.org/2000/svg">
<g clip-path="url(#clip0_2043_9885)">
<path d="M12.74 16.72C12.6087 16.7276 12.4782 16.6952 12.3653 16.6269C12.3245 16.6032 12.2905 16.5693 12.2665 16.5283C12.2425 16.4873 12.2294 16.4408 12.2285 16.3932C12.2285 16.1766 12.4159 16.0132 12.7793 15.9277C13.1865 15.8409 13.5701 15.6651 13.9035 15.4128C14.132 15.2114 14.2482 14.8618 14.2482 14.364V3.77526C14.2482 3.24706 14.1489 2.87276 13.9484 2.65616C13.748 2.43956 13.3751 2.27617 12.8243 2.16597C12.6622 2.13835 12.511 2.06529 12.3878 1.95506C12.3472 1.92044 12.314 1.87785 12.2902 1.82984C12.2664 1.78183 12.2524 1.72941 12.2491 1.67576C12.2477 1.62452 12.2612 1.574 12.2879 1.53043C12.3145 1.48687 12.3531 1.45219 12.399 1.43067C12.5156 1.37319 12.6441 1.34515 12.7737 1.34896C13.1884 1.34896 13.5987 1.35656 14.0046 1.37176L15.1887 1.41926C15.5734 1.43446 15.9569 1.44207 16.3391 1.44207C17.076 1.44207 17.8697 1.43446 18.7203 1.41926C19.5709 1.40406 20.3259 1.39646 20.9854 1.39646C21.4913 1.38126 21.9091 1.35276 22.2407 1.31476C22.5723 1.27676 22.7653 1.25586 22.8271 1.25586C22.9429 1.25776 23.0568 1.28566 23.1606 1.33756C23.2169 1.36824 23.2639 1.41372 23.2969 1.46922C23.3299 1.52471 23.3475 1.58818 23.348 1.65296C23.4104 2.18116 23.4866 2.70176 23.5765 3.21476C23.6619 3.65299 23.7083 4.09811 23.7152 4.54476C23.7259 4.66504 23.6933 4.78519 23.6234 4.88296C23.5988 4.91498 23.5677 4.94112 23.532 4.95951C23.4964 4.97791 23.4572 4.9881 23.4173 4.98936C23.3373 4.98761 23.2601 4.95886 23.1981 4.90767C23.1169 4.83273 23.0529 4.74062 23.0107 4.63786C22.8721 4.26546 22.7472 3.9431 22.636 3.67076C22.5502 3.44244 22.4231 3.23238 22.2613 3.05136C22.0694 2.84308 21.8438 2.66959 21.5943 2.53836C21.2941 2.39049 20.963 2.31878 20.6295 2.32936H18.6679C18.3794 2.32288 18.0969 2.41303 17.8641 2.58586C17.7516 2.66782 17.661 2.77692 17.6004 2.90331C17.5399 3.0297 17.5114 3.16939 17.5175 3.30976V7.81086C17.5132 7.88406 17.5243 7.95736 17.5501 8.02584C17.576 8.09432 17.616 8.15641 17.6674 8.20796C17.7702 8.30104 17.9043 8.35066 18.0421 8.34666H20.0899C20.5021 8.34666 20.7981 8.21936 20.9742 7.96666C21.1702 7.66783 21.3217 7.34132 21.4238 6.99767C21.5456 6.70317 21.7067 6.55496 21.9072 6.55496C21.9456 6.56213 21.982 6.57732 22.0143 6.59956C22.0465 6.62181 22.0739 6.65062 22.0946 6.68416C22.1311 6.7358 22.1571 6.79436 22.1709 6.85637C22.1848 6.91838 22.1862 6.98259 22.1751 7.04517C22.1583 7.20097 22.1433 7.38717 22.1283 7.61517L22.0833 8.26686C22.0665 8.48536 22.059 8.68677 22.059 8.87487C22.059 9.06297 22.059 9.26627 22.0702 9.49237C22.0814 9.71847 22.0908 9.94267 22.1058 10.1688C22.1208 10.3949 22.1358 10.6001 22.1508 10.7863C22.1715 10.9278 22.1561 11.0724 22.1058 11.2062C22.0918 11.2458 22.0665 11.2802 22.0331 11.3053C21.9998 11.3303 21.9599 11.3447 21.9184 11.3468C21.673 11.3468 21.4875 11.1359 21.3564 10.716C21.2708 10.3508 21.123 10.0036 20.9199 9.68996C20.8421 9.57825 20.7383 9.48782 20.6176 9.42681C20.497 9.3658 20.3633 9.33609 20.2285 9.34036H18.0927C17.9364 9.32713 17.7809 9.37317 17.6562 9.46957C17.5584 9.58249 17.5086 9.72998 17.5175 9.87996V14.3108C17.5175 14.7934 17.6187 15.1316 17.8173 15.3273C18.0159 15.523 18.3306 15.618 18.754 15.618H20.6857C21.0263 15.6214 21.3661 15.5825 21.6974 15.5021C21.9877 15.4296 22.2613 15.3006 22.503 15.1221C22.7782 14.9036 23.0151 14.6396 23.2037 14.3412C23.4251 13.9983 23.6284 13.6438 23.8126 13.2791C23.859 13.1898 23.9227 13.1109 23.9999 13.0473C24.0325 13.0233 24.0698 13.0067 24.1092 12.9985C24.1486 12.9903 24.1893 12.9907 24.2285 12.9998C24.2691 12.9975 24.3094 13.0087 24.3432 13.0316C24.377 13.0546 24.4025 13.0881 24.4159 13.1271C24.447 13.2213 24.4622 13.3203 24.4608 13.4197C24.4542 13.7068 24.4159 13.9923 24.3465 14.2709C24.2704 14.6053 24.1742 14.9555 24.058 15.3216C23.9419 15.6876 23.8388 16.041 23.7489 16.3818C23.7138 16.4786 23.6479 16.5609 23.5615 16.6155C23.4732 16.6627 23.3747 16.6868 23.2749 16.6858C22.9826 16.6858 22.5604 16.682 22.0084 16.6744L20.1105 16.6383C19.3985 16.6231 18.6704 16.6117 17.9259 16.6041C17.1815 16.5965 16.4877 16.5927 15.8444 16.5927C15.5222 16.5927 15.185 16.6003 14.8327 16.6155C14.4805 16.6307 14.1264 16.6497 13.7742 16.6744C13.422 16.6991 13.0716 16.72 12.74 16.72Z" fill="#00696E"/>
<path d="M25.4069 16.7199C25.2536 16.7261 25.1008 16.6982 24.9592 16.6382C24.9046 16.6134 24.8588 16.5723 24.8279 16.5203C24.7971 16.4683 24.7828 16.408 24.7868 16.3475C24.7836 16.2851 24.7969 16.2231 24.8252 16.1676C24.8535 16.1122 24.8959 16.0654 24.9479 16.0321C25.0784 15.953 25.2173 15.8892 25.362 15.8421C25.7846 15.7282 26.1825 15.5348 26.5348 15.2721C26.8752 15.0114 27.1378 14.6602 27.2936 14.2575C27.692 13.3556 28.0667 12.4803 28.4177 11.6317C28.7687 10.783 29.1009 9.93688 29.4144 9.09328C29.7367 8.25348 30.0583 7.40228 30.3793 6.53968C30.7034 5.67708 31.0313 4.77838 31.3704 3.84548C31.5255 3.44178 31.6556 3.02868 31.7601 2.60858C31.8219 2.32928 31.8669 2.14308 31.8987 2.04998C32.1592 1.98728 32.3971 1.92458 32.6107 1.85998C32.8603 1.78735 33.1061 1.70175 33.347 1.60349C33.5671 1.50176 33.7691 1.36371 33.9446 1.19498C34.1133 1.03158 34.2444 0.896692 34.3362 0.788392C34.3899 0.75894 34.4482 0.739021 34.5086 0.729492C34.5629 0.729492 34.6116 0.763689 34.6585 0.856789C34.7053 0.949889 34.7465 1.04678 34.7859 1.14938C34.8252 1.25198 34.8571 1.35459 34.8889 1.46479C35.2112 2.53639 35.5484 3.62446 35.9006 4.72899C36.2528 5.83352 36.602 6.93046 36.9479 8.01979C37.2927 9.10912 37.6336 10.1624 37.9709 11.1795C38.3081 12.1966 38.6204 13.165 38.9076 14.0846C39.0095 14.4167 39.1736 14.7257 39.391 14.9947C39.5813 15.2193 39.8122 15.405 40.0711 15.5419C40.3371 15.6799 40.6182 15.7858 40.9086 15.8573C41.0573 15.8948 41.1982 15.9592 41.3245 16.0473C41.3763 16.0836 41.4182 16.1326 41.4463 16.1898C41.4745 16.2469 41.488 16.3103 41.4856 16.3741C41.4851 16.4205 41.4718 16.4659 41.4474 16.5051C41.4229 16.5444 41.3881 16.576 41.347 16.5964C41.231 16.6554 41.1019 16.6829 40.9723 16.6762C40.6819 16.6762 40.3165 16.6762 39.88 16.6534C39.4435 16.6306 39.0032 16.6192 38.5573 16.5964C38.1114 16.5736 37.7142 16.5603 37.362 16.5603C37.0547 16.5603 36.7025 16.5603 36.3034 16.5831L35.1081 16.6306C34.7091 16.6458 34.3587 16.6534 34.0721 16.6534C33.9425 16.6575 33.8138 16.6294 33.6973 16.5717C33.6492 16.5521 33.6081 16.5182 33.5793 16.4745C33.5505 16.4307 33.5355 16.3792 33.5362 16.3266C33.5373 16.264 33.5535 16.2026 33.5836 16.1479C33.6137 16.0932 33.6566 16.0469 33.7086 16.0131C33.8283 15.925 33.9659 15.8653 34.1114 15.8383C34.5496 15.7794 34.9698 15.6237 35.3423 15.3823C35.5952 15.1923 35.6833 14.8959 35.6065 14.5083C35.5453 14.2119 35.4722 13.8952 35.3873 13.5583C35.3023 13.2213 35.2105 12.868 35.1119 12.4981C35.0119 12.1308 34.9158 11.7843 34.8233 11.4588C34.8047 11.3578 34.7571 11.2646 34.6866 11.1909C34.5913 11.1276 34.4777 11.0989 34.3643 11.1092H30.2838C30.2379 11.1067 30.192 11.1137 30.1489 11.1297C30.1057 11.1457 30.0662 11.1704 30.0327 11.2023C29.9592 11.2883 29.9111 11.3937 29.8941 11.5063C29.8322 11.7248 29.7592 11.949 29.6749 12.1827C29.5906 12.4164 29.51 12.6577 29.4332 12.9066C29.3564 13.1555 29.287 13.3911 29.2252 13.6172C29.1634 13.8433 29.1109 14.0485 29.066 14.2347C28.9723 14.6869 29.0297 15.0333 29.2383 15.274C29.4469 15.5147 29.8572 15.7047 30.4692 15.844C30.8514 15.9517 31.0425 16.1227 31.0425 16.357C31.0425 16.403 31.0296 16.4481 31.0054 16.4871C30.9812 16.5261 30.9467 16.5574 30.9058 16.5774C30.7845 16.6388 30.6495 16.6669 30.5142 16.6591C30.1008 16.6591 29.7023 16.6477 29.3189 16.6249C28.9348 16.6021 28.5208 16.5888 28.0767 16.5888C27.6312 16.5886 27.1859 16.6121 26.7428 16.6591C26.2989 16.7038 25.853 16.7241 25.4069 16.7199ZM30.9133 9.93309H34.0177C34.2482 9.93309 34.3624 9.88748 34.3624 9.79438C34.3645 9.751 34.3607 9.70754 34.3512 9.66518C34.3512 9.64239 34.3325 9.59869 34.3175 9.53789L32.7306 4.21789C32.6688 4.01649 32.6144 3.91578 32.5695 3.91578C32.5245 3.91578 32.4927 4.00889 32.4308 4.19509L30.5386 9.53789C30.5123 9.59793 30.4971 9.66231 30.4936 9.72789C30.4934 9.76547 30.5056 9.80203 30.5284 9.83168C30.5512 9.86132 30.5831 9.88232 30.6191 9.89129C30.714 9.92249 30.8136 9.93664 30.9133 9.93309Z" fill="#00696E"/>
<path d="M46.2933 16.9554C45.6609 16.9568 45.0311 16.8744 44.4198 16.7103C43.823 16.5514 43.2585 16.2871 42.7523 15.9294C42.6548 15.8633 42.566 15.7847 42.4882 15.6957C42.4055 15.6068 42.3389 15.5039 42.2914 15.3917C42.1378 14.9072 42.0416 14.4058 42.0048 13.8983C41.9513 13.3249 41.9319 12.7488 41.9467 12.1731C41.9445 12.1246 41.955 12.0765 41.977 12.0334C41.999 11.9904 42.0319 11.954 42.0722 11.928C42.1659 11.8706 42.2739 11.8422 42.3832 11.8463C42.4879 11.8373 42.5928 11.8619 42.683 11.9166C42.7561 11.9787 42.8116 12.0593 42.8441 12.1503C43.1963 13.3169 43.696 14.2384 44.343 14.9148C44.6306 15.2338 44.9805 15.4887 45.3704 15.6634C45.7603 15.8381 46.1818 15.9286 46.6081 15.9294C47.046 15.9435 47.4782 15.8258 47.8502 15.5912C48.1801 15.3734 48.4431 15.0659 48.609 14.7039C48.7755 14.3508 48.8625 13.9647 48.8638 13.5734C48.8914 13.1289 48.8018 12.6851 48.6043 12.2874C48.4067 11.8897 48.1083 11.5525 47.7397 11.3105C47.2658 10.9727 46.7742 10.6613 46.2671 10.3776C45.6426 10.0191 45.0293 9.63404 44.4273 9.22237C43.8455 8.82619 43.3453 8.31896 42.9547 7.72897C42.5546 7.08395 42.3543 6.33216 42.3795 5.57058C42.3633 4.74117 42.6002 3.92695 43.0577 3.23927C43.5302 2.55477 44.178 2.0141 44.9312 1.67558C45.7844 1.28729 46.7109 1.09276 47.646 1.10558C48.1917 1.10377 48.7357 1.16755 49.2666 1.29558C49.6851 1.39303 50.0964 1.52 50.4975 1.67558C50.6465 1.71603 50.7819 1.79681 50.8891 1.90927C50.9876 2.049 51.0577 2.20726 51.0952 2.37477C51.1726 2.70157 51.2419 3.09424 51.3031 3.55278C51.3657 4.0442 51.3964 4.53927 51.3949 5.03477C51.3949 5.23807 51.2563 5.33877 50.9809 5.33877C50.8489 5.33738 50.7197 5.30068 50.6062 5.23237C50.5516 5.20629 50.5029 5.16902 50.4633 5.12291C50.4236 5.0768 50.3938 5.02286 50.3757 4.96447C50.1159 4.04614 49.7412 3.35454 49.2516 2.88968C48.7607 2.42209 48.1075 2.1701 47.4343 2.18858C47.0201 2.17629 46.6083 2.25605 46.2277 2.42227C45.904 2.57224 45.6343 2.82056 45.4558 3.13287C45.257 3.51704 45.162 3.94772 45.1804 4.38117C45.187 4.7723 45.3297 5.14849 45.5832 5.44328C45.9035 5.82463 46.2749 6.15849 46.6867 6.43507C47.1551 6.76187 47.696 7.11908 48.3092 7.50668C48.9982 7.89139 49.6424 8.35346 50.2296 8.88418C50.6946 9.30434 51.0702 9.8164 51.3331 10.389C51.5818 10.982 51.7032 11.6219 51.6891 12.2662C51.6891 13.3099 51.4636 14.1807 51.0127 14.8787C50.5549 15.582 49.8969 16.1274 49.1261 16.4424C48.2245 16.8016 47.2617 16.9759 46.2933 16.9554Z" fill="#00696E"/>
<path d="M56.967 16.7444C56.8032 16.7528 56.6402 16.7168 56.4948 16.6399C56.4473 16.6182 56.4062 16.5841 56.3759 16.541C56.3457 16.4979 56.3272 16.4475 56.3225 16.3948C56.322 16.3271 56.3401 16.2607 56.3749 16.2029C56.4097 16.1452 56.4596 16.0984 56.5192 16.068C56.6725 15.9826 56.8403 15.9271 57.0138 15.9046C57.5965 15.7811 58.0105 15.5664 58.256 15.2643C58.5168 14.9207 58.6495 14.4947 58.6307 14.0616V10.7974C58.6406 10.3541 58.5622 9.91339 58.4002 9.50158C58.2631 9.16746 58.1015 8.84418 57.9169 8.53448L55.0185 3.91558C54.8817 3.71228 54.7244 3.49188 54.5482 3.25058C54.3716 3.00908 54.1714 2.78628 53.9506 2.58558C53.7301 2.385 53.4654 2.24101 53.1787 2.16569C53.025 2.13103 52.8777 2.07203 52.7422 1.99088C52.6901 1.95755 52.6477 1.91077 52.6194 1.85534C52.5911 1.7999 52.5778 1.73783 52.581 1.67548C52.5797 1.62424 52.5931 1.57372 52.6198 1.53015C52.6464 1.48659 52.685 1.45191 52.7309 1.43039C52.8411 1.37382 52.9634 1.34575 53.0869 1.34868C53.6995 1.34868 54.2878 1.36958 54.848 1.40758C55.4082 1.44558 56.0077 1.46648 56.6522 1.46648C57.1281 1.46648 57.589 1.44558 58.0087 1.40758C58.4283 1.36958 58.8836 1.34868 59.3445 1.34868C59.4937 1.34877 59.6416 1.37647 59.781 1.43039C59.9197 1.48549 59.9871 1.56718 59.9871 1.67548C59.985 1.74083 59.9645 1.80419 59.928 1.85807C59.8914 1.91195 59.8404 1.95409 59.781 1.97948C59.6286 2.06349 59.4661 2.12735 59.2977 2.16948C59.0035 2.22665 58.7194 2.32783 58.4546 2.46968C58.3684 2.52241 58.2982 2.59816 58.2516 2.68864C58.205 2.77911 58.1838 2.88083 58.1904 2.98268C58.2089 3.27881 58.2955 3.56642 58.4433 3.82248L60.7665 7.92648C60.9351 8.25328 61.0888 8.41668 61.2274 8.41668C61.2707 8.41343 61.3128 8.40029 61.3504 8.37825C61.3881 8.35621 61.4203 8.32583 61.4447 8.28938C61.514 8.20388 61.6021 8.08228 61.7089 7.92648C62.0611 7.28998 62.4002 6.66679 62.7206 6.06069C63.041 5.45459 63.3726 4.79338 63.7098 4.07898C63.7985 3.91528 63.8719 3.74354 63.929 3.56599C63.9796 3.41537 64.0068 3.25768 64.0096 3.09858C64.018 2.96121 63.9871 2.8243 63.9207 2.70431C63.8542 2.58431 63.755 2.48634 63.6349 2.42218C63.383 2.28191 63.1058 2.19467 62.8199 2.16569C62.6529 2.1459 62.4919 2.09018 62.3478 2.00228C62.1867 1.90918 62.1061 1.80088 62.1061 1.67548C62.1061 1.55008 62.1754 1.48549 62.3122 1.44179C62.4612 1.39394 62.6167 1.37021 62.7731 1.37148C63.2021 1.37148 63.5824 1.38858 63.9122 1.41898C64.2419 1.44938 64.6054 1.46648 65.0044 1.46648C65.4005 1.46712 65.7962 1.43982 66.1885 1.38478C66.5733 1.32937 66.9615 1.30207 67.3501 1.30308C67.5149 1.29927 67.6789 1.32699 67.8335 1.38478C67.8926 1.39958 67.9452 1.43398 67.9828 1.4825C68.0205 1.53103 68.0411 1.59092 68.0415 1.65268C68.0415 1.79328 67.9571 1.89778 67.7885 1.96808C67.6199 2.03838 67.4344 2.10298 67.2358 2.15808C66.8205 2.27667 66.4365 2.48762 66.1117 2.77558C65.7751 3.08228 65.4881 3.44068 65.2611 3.83768L64.5248 5.02709C64.2944 5.40709 64.0677 5.76238 63.8466 6.11198C63.6255 6.46158 63.4007 6.81878 63.1796 7.18548C62.9585 7.55218 62.73 7.94549 62.5014 8.36349C62.3688 8.58319 62.2536 8.81317 62.1567 9.05128C62.0632 9.27623 61.9934 9.51061 61.9487 9.75048C61.8997 10.0314 61.8765 10.3164 61.8794 10.6017V14.0217C61.8794 14.5967 62.0043 15.0128 62.2541 15.27C62.4995 15.5265 62.9136 15.7336 63.4981 15.8875C63.6673 15.9253 63.8323 15.98 63.9909 16.0509C64.0506 16.0748 64.1016 16.1168 64.1368 16.1712C64.172 16.2257 64.1897 16.2898 64.1876 16.3549C64.1861 16.4099 64.1691 16.4633 64.1386 16.5088C64.108 16.5543 64.0652 16.5899 64.0152 16.6114C63.8751 16.6792 63.7207 16.7112 63.5656 16.7045C63.2133 16.7045 62.8455 16.6886 62.4621 16.657C62.0874 16.6266 61.6995 16.6 61.323 16.5772C60.9464 16.5544 60.5998 16.5411 60.2775 16.5411C59.9553 16.5411 59.5862 16.5525 59.219 16.5772C58.8518 16.6019 58.4696 16.6304 58.0948 16.6703C57.7201 16.7102 57.3192 16.7444 56.967 16.7444Z" fill="#00696E"/>
<path d="M4.52248 37.1393C3.91601 37.1456 3.31289 37.0473 2.73888 36.8486C2.20795 36.6608 1.71342 36.3805 1.27752 36.0203C1.2148 35.9546 1.15717 35.884 1.10515 35.8093C1.05152 35.7303 1.00926 35.644 0.979627 35.5528C0.892018 35.1545 0.841833 34.7486 0.829744 34.3406C0.807262 33.8428 0.779159 33.44 0.749182 33.1037C0.747475 33.0538 0.759551 33.0045 0.784048 32.9612C0.808546 32.9178 0.844489 32.8823 0.887824 32.8586C0.98588 32.8021 1.09732 32.7739 1.21007 32.7769C1.29041 32.7777 1.3694 32.7979 1.44052 32.8358C1.4767 32.854 1.50803 32.8808 1.53184 32.9139C1.55565 32.9469 1.57124 32.9854 1.57729 33.0258C1.88455 34.2241 2.34044 35.0798 2.94497 35.5927C3.38788 36.0039 3.94589 36.2651 4.54172 36.3404C5.13755 36.4156 5.7417 36.3011 6.27049 36.0126C6.6813 35.7816 7.01961 35.4379 7.24661 35.0208C7.49314 34.5594 7.6165 34.0407 7.60445 33.5161C7.62575 32.9814 7.51904 32.4494 7.29344 31.9656C7.07721 31.5572 6.77459 31.2023 6.40726 30.9264C6.02506 30.6325 5.55793 30.3158 5.00586 29.9764C4.40633 29.5875 3.81554 29.1948 3.23349 28.7983C2.67652 28.4267 2.18664 27.9607 1.78525 27.4208C1.39175 26.8694 1.18949 26.2012 1.21007 25.5209C1.19859 24.7695 1.38071 24.0281 1.73841 23.37C2.11335 22.716 2.66891 22.1876 3.33654 21.85C4.05098 21.47 4.94403 21.28 6.01569 21.28C6.50092 21.2719 6.98498 21.3307 7.45457 21.4548C7.78657 21.5453 8.11259 21.657 8.43068 21.7892C8.55314 21.8375 8.66056 21.9182 8.74169 22.0229C8.82175 22.1263 8.8798 22.2453 8.91218 22.3725C9.00586 22.6993 9.10578 23.073 9.21195 23.4936C9.31488 23.8815 9.36902 24.2812 9.37307 24.6829C9.37307 24.8539 9.25878 24.9395 9.02834 24.9395C8.88886 24.9397 8.75115 24.9078 8.62553 24.8464C8.57189 24.8258 8.52286 24.7945 8.48135 24.7543C8.43983 24.7142 8.40668 24.666 8.38384 24.6126C8.13813 23.9129 7.7558 23.2705 7.25972 22.724C7.04496 22.5073 6.78871 22.3376 6.50676 22.2252C6.22482 22.1127 5.92316 22.0601 5.62038 22.0704C5.17863 22.0666 4.74073 22.1539 4.33326 22.327C3.93076 22.4997 3.58964 22.7926 3.35527 23.1667C3.08247 23.639 2.95219 24.182 2.98056 24.7286C2.97985 25.1927 3.13813 25.6427 3.42834 26.0015C3.76927 26.4194 4.16885 26.7843 4.61429 27.0845C5.10266 27.4291 5.63162 27.7793 6.20117 28.1353C6.74386 28.466 7.26974 28.8243 7.77682 29.2087C8.28054 29.5864 8.70958 30.057 9.04145 30.5958C9.38688 31.1925 9.55838 31.8763 9.53607 32.5679C9.55497 33.4154 9.3395 34.2513 8.91405 34.9809C8.49876 35.6761 7.89081 36.2319 7.16604 36.5789C6.33912 36.9695 5.43446 37.1613 4.52248 37.1393Z" fill="#00696E"/>
<path d="M19.8872 37.1163C18.8265 37.116 17.7744 36.923 16.7809 36.5463C15.8034 36.1874 14.8991 35.6496 14.113 34.9598C13.3308 34.2678 12.7003 33.4173 12.2619 32.4632C11.8005 31.4515 11.5687 30.3478 11.5837 29.2332C11.5734 28.141 11.8173 27.0617 12.2956 26.083C12.7719 25.116 13.4374 24.2574 14.2516 23.5598C15.0922 22.8357 16.0542 22.2706 17.0919 21.8916C18.1723 21.492 19.3142 21.2907 20.4643 21.2969C20.9709 21.2926 21.4775 21.3154 21.9818 21.3653C22.3965 21.4134 22.7993 21.4768 23.1902 21.5553C23.5812 21.6338 24.0371 21.7466 24.5579 21.8935C24.7473 21.9326 24.92 22.0302 25.0525 22.1728C25.1612 22.3214 25.2215 22.5008 25.2249 22.6858C25.2568 23.0449 25.2942 23.4287 25.3411 23.841C25.3879 24.2533 25.4179 24.7625 25.4329 25.361C25.4399 25.4161 25.429 25.472 25.402 25.5203C25.375 25.5686 25.3332 25.6067 25.283 25.6289C25.228 25.6646 25.1663 25.6882 25.1017 25.6983C25.0372 25.7085 24.9713 25.7049 24.9083 25.6878C24.8401 25.6679 24.7789 25.6287 24.7318 25.5749C24.6847 25.5211 24.6537 25.4548 24.6422 25.3838C24.5114 24.8621 24.3346 24.3534 24.1139 23.8638C23.914 23.4351 23.604 23.0689 23.2165 22.8036C22.792 22.5211 22.3203 22.3196 21.8244 22.2089C21.2479 22.0721 20.6573 22.0052 20.0652 22.0094C19.2107 22.0025 18.3656 22.1902 17.5921 22.5585C16.8457 22.9136 16.1803 23.4222 15.638 24.0519C15.0923 24.6819 14.6598 25.404 14.3603 26.1856C14.0549 26.9722 13.8991 27.8103 13.9013 28.6556C13.9019 29.6074 14.0531 30.5529 14.349 31.4562C14.6373 32.3518 15.0732 33.1915 15.638 33.9395C16.1796 34.666 16.8626 35.272 17.6446 35.7198C18.4348 36.1672 19.327 36.3965 20.2319 36.3848C21.3348 36.3848 22.2472 36.1315 22.9692 35.6248C23.735 35.0598 24.3641 34.3256 24.809 33.4778C24.8502 33.3863 24.9168 33.309 25.0006 33.2554C25.0845 33.2017 25.182 33.174 25.2811 33.1757C25.4872 33.1757 25.5921 33.2992 25.5921 33.5557C25.5805 33.7565 25.5498 33.9556 25.5003 34.1504C25.4385 34.424 25.3579 34.7109 25.2586 35.0149C25.1593 35.3189 25.0713 35.5849 24.9701 35.8186C24.9059 35.9726 24.8166 36.1145 24.7059 36.2385C24.5621 36.3365 24.4022 36.4079 24.2338 36.4494C23.5787 36.7039 22.8955 36.8761 22.1991 36.9624C21.4328 37.0661 20.6604 37.1175 19.8872 37.1163Z" fill="#00696E"/>
<path d="M41.5084 37.2553C41.1002 37.2574 40.6926 37.2225 40.2906 37.1508C39.9189 37.0863 39.5609 36.9578 39.232 36.7708C38.8919 36.5672 38.5884 36.3063 38.3346 35.9994C37.9674 35.5332 37.6145 35.0861 37.276 34.658C36.9376 34.2298 36.581 33.7365 36.2063 33.1779C35.8315 32.6167 35.3756 31.9011 34.8386 31.0309C34.602 30.6373 34.2585 30.3213 33.8493 30.1208C33.5322 29.9582 33.196 29.8369 32.8489 29.7598C32.5797 29.6989 32.3068 29.6564 32.032 29.6325C31.9815 29.6208 31.9287 29.6258 31.8812 29.6466C31.8337 29.6674 31.794 29.7031 31.7678 29.7484C31.7106 29.8555 31.6828 29.9762 31.6873 30.098V34.2001C31.6757 34.6562 31.7955 35.1058 32.032 35.494C32.2618 35.8613 32.6609 36.0988 33.2292 36.2065C33.4274 36.2341 33.6209 36.289 33.8044 36.3699C33.8571 36.389 33.9031 36.4236 33.9365 36.4693C33.9698 36.5149 33.9891 36.5696 33.9917 36.6264C33.9917 36.7195 33.9299 36.786 33.8044 36.8164C33.6471 36.8603 33.4841 36.8802 33.321 36.8753C33.0018 36.8808 32.6826 36.8649 32.3655 36.8278L31.7678 36.7461C31.5352 36.7203 31.3012 36.7089 31.0671 36.7119C30.6924 36.7119 30.3421 36.7233 30.0423 36.7461C29.7426 36.7689 29.4447 36.7974 29.1468 36.8278C28.7912 36.8623 28.4341 36.8782 28.077 36.8753C27.9138 36.8805 27.7509 36.8606 27.5936 36.8164C27.47 36.7784 27.4062 36.7119 27.4062 36.6264C27.4062 36.4402 27.6561 36.3002 28.1557 36.2065C28.739 36.0988 29.1643 35.9202 29.4315 35.6707C29.6988 35.4211 29.8331 35.0088 29.8344 34.4338V24.4968C29.8442 24.0481 29.8172 23.5995 29.7538 23.1554C29.7396 23.0275 29.6989 22.9042 29.6343 22.7935C29.5697 22.6828 29.4827 22.5873 29.3791 22.5132C29.0822 22.3597 28.7564 22.2723 28.4236 22.2567C28.221 22.2448 28.024 22.1849 27.8484 22.0819C27.795 22.0535 27.7497 22.0117 27.7169 21.9605C27.6841 21.9092 27.6648 21.8503 27.6611 21.7893C27.6611 21.6962 27.721 21.6316 27.8484 21.5993C28.0059 21.556 28.1687 21.5362 28.3318 21.5404H29.2685C29.4746 21.5404 29.6714 21.5404 29.855 21.5537C30.0386 21.567 30.284 21.5651 30.5913 21.5651C30.8521 21.5668 31.1129 21.5548 31.3725 21.529C31.603 21.5062 31.8596 21.4872 32.1444 21.472C32.4292 21.4568 32.7927 21.4473 33.2367 21.4473C34.9229 21.4473 36.2069 21.7639 37.0887 22.3973C37.9705 23.0306 38.4164 23.9882 38.4264 25.2701C38.4436 25.8984 38.301 26.5207 38.0123 27.077C37.7516 27.5643 37.4005 27.996 36.9781 28.3481C36.589 28.6752 36.1648 28.9569 35.7135 29.1879C35.6517 29.205 35.6255 29.2392 35.6329 29.2943C35.6477 29.3622 35.6751 29.4267 35.7135 29.4843C36.1881 30.2151 36.644 30.9074 37.0812 31.561C37.526 32.2243 38.0063 32.8624 38.5201 33.4724C39.0995 34.1573 39.7215 34.804 40.3824 35.4085C40.7221 35.7357 41.1441 35.9618 41.602 36.0621C42.0728 36.1451 42.55 36.1846 43.0278 36.1799C43.2582 36.1799 43.3725 36.2654 43.3725 36.4364C43.3723 36.5485 43.3394 36.658 43.2781 36.7513C43.2168 36.8446 43.1297 36.9174 43.0278 36.9608C42.7811 37.0817 42.5166 37.1606 42.2447 37.1945C42.0007 37.2303 41.7548 37.2506 41.5084 37.2553ZM32.907 29.0853C33.3582 29.0929 33.8064 29.0091 34.2253 28.8388C34.6442 28.6686 35.0254 28.4153 35.3466 28.0938C35.6678 27.7723 35.9225 27.3891 36.0959 26.9666C36.2692 26.544 36.3577 26.0906 36.3561 25.633C36.362 25.0408 36.2812 24.4511 36.1163 23.8831C35.9554 23.3552 35.6122 22.9038 35.1496 22.612C34.6662 22.2953 33.9418 22.1363 32.9763 22.1351C32.4835 22.1351 32.1632 22.2947 32.0095 22.612C31.8559 22.9293 31.7641 23.4955 31.7341 24.303C31.7191 24.683 31.706 25.2169 31.6985 25.8781C31.691 26.5393 31.6873 27.3354 31.6873 28.2702C31.6873 28.6502 31.7941 28.8915 32.0095 28.9694C32.3 29.0597 32.6033 29.1008 32.907 29.091V29.0853Z" fill="#00696E"/>
<path d="M44.3616 36.8827C44.1985 36.8879 44.0355 36.868 43.8783 36.8238C43.7546 36.7858 43.6909 36.7193 43.6909 36.6338C43.6909 36.4476 43.9438 36.3076 44.4497 36.2139C44.9306 36.1474 45.3883 35.9636 45.7837 35.6781C46.0909 35.4248 46.2445 35.0277 46.2445 34.4868V23.9399C46.2445 23.3965 46.1321 23.007 45.9111 22.7733C45.69 22.5396 45.2853 22.3686 44.7026 22.2603C44.1968 22.1666 43.9438 22.0108 43.9438 21.7929C43.9438 21.6998 44.0057 21.6352 44.1312 21.6029C44.2887 21.5597 44.4515 21.5398 44.6146 21.544C45.0286 21.544 45.364 21.544 45.6375 21.5687C45.9111 21.5934 46.164 21.5953 46.4094 21.6029C46.6549 21.6105 46.9527 21.6143 47.3068 21.6143C47.6609 21.6143 47.9195 21.6143 48.1349 21.6029C48.3504 21.5915 48.579 21.5839 48.8244 21.5687C49.0698 21.5535 49.3996 21.544 49.8136 21.544C49.9761 21.54 50.1383 21.5598 50.2951 21.6029C50.4188 21.6428 50.4825 21.7074 50.4825 21.7929C50.479 21.8525 50.4598 21.9101 50.4269 21.9596C50.3939 22.0091 50.3484 22.0486 50.2951 22.0741C50.1168 22.1719 49.9226 22.2362 49.7218 22.2641C49.1548 22.373 48.7407 22.544 48.4797 22.7771C48.2174 23.0108 48.0881 23.4003 48.0881 23.9437V34.4868C48.0881 35.0327 48.2492 35.4298 48.5715 35.6781C48.9695 35.9586 49.426 36.142 49.9054 36.2139C50.1036 36.2415 50.2971 36.2965 50.4806 36.3773C50.5334 36.3964 50.5794 36.431 50.6127 36.4767C50.6461 36.5224 50.6653 36.577 50.668 36.6338C50.668 36.7269 50.6061 36.7934 50.4806 36.8238C50.3233 36.8678 50.1604 36.8876 49.9972 36.8827C49.5826 36.8827 49.2416 36.8713 48.9743 36.8485C48.7045 36.8238 48.4478 36.8048 48.2024 36.7896C47.957 36.7744 47.6591 36.7668 47.3068 36.7668C46.9228 36.7668 46.5893 36.7668 46.3045 36.7896C46.0197 36.8124 45.7293 36.8238 45.4314 36.8485C45.1335 36.8732 44.7776 36.8827 44.3616 36.8827Z" fill="#00696E"/>
<path d="M52.2977 36.8826C52.1346 36.8878 51.9716 36.8679 51.8143 36.8237C51.6907 36.7857 51.627 36.7192 51.627 36.6337C51.627 36.4437 51.8818 36.3069 52.3876 36.2138C52.9709 36.1061 53.3962 35.9275 53.6635 35.678C53.9308 35.4285 54.065 35.0162 54.0663 34.4411V24.5896C54.0663 23.8891 53.9782 23.3527 53.8021 22.9803C53.626 22.6079 53.2463 22.3666 52.663 22.2564C52.4617 22.2283 52.2669 22.164 52.0878 22.0664C52.0347 22.0408 51.9893 22.0011 51.9564 21.9517C51.9234 21.9023 51.9041 21.8448 51.9005 21.7852C51.9005 21.6921 51.9623 21.6275 52.0878 21.5952C52.2453 21.5522 52.4081 21.5323 52.5712 21.5363H53.508C53.7159 21.5363 53.9108 21.5363 54.0944 21.5496C54.278 21.5629 54.5234 21.561 54.8307 21.561C55.138 21.561 55.449 21.5496 55.7675 21.5249C56.086 21.5002 56.3782 21.4793 56.6537 21.4546C56.9291 21.4299 57.1745 21.4204 57.39 21.4204C59.1386 21.4204 60.5456 21.7858 61.611 22.5167C62.1164 22.841 62.5297 23.2934 62.81 23.8292C63.0902 24.365 63.2278 24.9657 63.2092 25.5719C63.2187 26.4779 63.0299 27.3747 62.6565 28.1977C62.2938 28.9933 61.7071 29.6623 60.9703 30.1205C60.2109 30.6031 59.241 30.8444 58.0607 30.8444C57.7955 30.8605 57.5306 30.8082 57.2907 30.6924C57.1033 30.5917 57.0246 30.5024 57.0246 30.4017C57.0308 30.3597 57.0453 30.3194 57.0672 30.2832C57.0891 30.2469 57.1179 30.2155 57.152 30.1908C57.2158 30.1234 57.3018 30.0821 57.3937 30.0749C57.4705 30.0749 57.5811 30.0749 57.7497 30.0977C57.9183 30.1205 58.145 30.1205 58.4522 30.1205C58.8684 30.1348 59.2805 30.0335 59.6441 29.8275C60.0076 29.6216 60.3088 29.3189 60.515 28.952C60.9821 28.173 61.2163 27.0963 61.2176 25.722C61.2176 24.4794 60.8566 23.5579 60.1347 22.9575C59.4127 22.3571 58.4928 22.0582 57.375 22.0607C57.0098 22.0469 56.6467 22.1225 56.3164 22.2811C56.1816 22.3528 56.0705 22.463 55.9969 22.5981C55.9233 22.7332 55.8905 22.8872 55.9024 23.0411V34.1694C55.8804 34.6455 56.0013 35.1172 56.249 35.5222C56.4775 35.8642 56.876 36.0897 57.4443 36.1986C57.6425 36.2262 57.836 36.2812 58.0195 36.362C58.0722 36.3811 58.1182 36.4157 58.1516 36.4614C58.1849 36.5071 58.2041 36.5617 58.2068 36.6185C58.2068 36.7116 58.145 36.7781 58.0195 36.8085C57.8621 36.8525 57.6992 36.8723 57.5361 36.8674C57.2175 36.873 56.899 36.8571 56.5825 36.8199L55.9829 36.7382C55.7503 36.7125 55.5163 36.701 55.2822 36.704C54.8981 36.704 54.5572 36.7154 54.2574 36.7382C53.9576 36.761 53.6597 36.7895 53.3618 36.8199C53.0084 36.8594 52.6532 36.8803 52.2977 36.8826Z" fill="#00696E"/>
<path d="M68.6969 36.8828C68.5338 36.8877 68.3709 36.8679 68.2135 36.8239C68.0918 36.7859 68.0262 36.7194 68.0262 36.6339C68.0289 36.5771 68.0481 36.5224 68.0814 36.4768C68.1148 36.4311 68.1608 36.3965 68.2135 36.3774C68.397 36.2966 68.5905 36.2416 68.7887 36.214C69.276 36.1478 69.7372 35.951 70.1246 35.644C70.4293 35.3729 70.5823 34.9568 70.5836 34.3957V25.3365C70.5836 24.6202 70.5686 24.073 70.5386 23.6911C70.5287 23.4165 70.4781 23.1449 70.3887 22.8855C70.3679 22.8203 70.3301 22.7621 70.2793 22.7169C70.2285 22.6718 70.1666 22.6414 70.1002 22.629C69.8768 22.5827 69.6499 22.5553 69.422 22.5473C69.1834 22.5397 68.8649 22.5359 68.4665 22.5359H67.3873C67.0118 22.5371 66.6402 22.6126 66.2932 22.7582C65.9571 22.8851 65.6763 23.1289 65.5007 23.446C65.4538 23.5239 65.377 23.636 65.2702 23.7842C65.1692 23.9232 65.0537 24.0506 64.9255 24.1642C64.8252 24.2643 64.6915 24.3226 64.5508 24.3276C64.5227 24.3283 64.4951 24.3196 64.4724 24.3027C64.4497 24.2859 64.4331 24.2619 64.4253 24.2345C64.4013 24.1668 64.3893 24.0955 64.3897 24.0236C64.3915 23.8613 64.4313 23.7017 64.5058 23.5581C64.6946 23.1708 64.8518 22.7686 64.9761 22.3554C65.0889 21.9464 65.1697 21.529 65.2178 21.1071C65.2496 20.843 65.3058 20.6872 65.3901 20.6416C65.4563 20.6 65.5316 20.5758 65.6093 20.5713C65.6712 20.5713 65.7667 20.6644 65.8979 20.8506C66.0039 20.9995 66.0997 21.1557 66.1845 21.318C66.2763 21.4738 66.4861 21.5897 66.8178 21.6676C67.1377 21.7442 67.4652 21.7831 67.7939 21.7835H75.8969C76.3359 21.7913 76.7747 21.7601 77.2084 21.6904C77.5085 21.6405 77.8016 21.5544 78.0815 21.4339C78.2447 21.3552 78.3961 21.2535 78.5311 21.1318C78.6536 21.0202 78.8143 20.9615 78.9789 20.9684C79.0257 20.9684 79.0632 21.0254 79.095 21.1432C79.1252 21.2611 79.1403 21.3824 79.14 21.5042C79.1369 21.6138 79.1256 21.7231 79.1063 21.831C79.0819 21.9716 79.0632 22.0799 79.0482 22.1578C79.0178 22.3621 78.9759 22.5644 78.9227 22.7639C78.8881 22.8707 78.8612 22.9799 78.8421 23.0907C78.8223 23.2374 78.8141 23.3854 78.8178 23.5334V23.8146C78.8136 23.9776 78.7826 24.1388 78.726 24.2915C78.666 24.4701 78.5723 24.5594 78.4506 24.5594C78.3288 24.5594 78.2632 24.4758 78.1976 24.3029C78.1187 24.0747 78.0561 23.841 78.0103 23.6037C77.9789 23.4409 77.9134 23.2868 77.818 23.1521C77.7226 23.0173 77.5997 22.905 77.4576 22.8228C77.1503 22.6328 76.6295 22.5302 75.8932 22.5302H73.5737C73.3134 22.515 73.0532 22.5632 72.815 22.6708C72.6463 22.7639 72.5395 22.9976 72.4927 23.37C72.4359 23.9825 72.4128 24.5978 72.4234 25.213V34.39C72.4234 34.9498 72.5845 35.366 72.9068 35.6383C73.2965 35.9399 73.7556 36.1361 74.2407 36.2083C74.4389 36.2359 74.6324 36.2909 74.8159 36.3717C74.8687 36.3908 74.9146 36.4254 74.948 36.4711C74.9813 36.5167 75.0006 36.5714 75.0032 36.6282C75.0032 36.7213 74.9414 36.7878 74.8159 36.8182C74.6586 36.8623 74.4956 36.8821 74.3325 36.8771C73.9191 36.8771 73.5781 36.8657 73.3096 36.8429C73.0398 36.8182 72.785 36.7992 72.5395 36.784C72.2941 36.7688 71.9943 36.7612 71.6421 36.7612C71.2574 36.7612 70.9239 36.7688 70.6416 36.784C70.3569 36.7992 70.0665 36.8182 69.7667 36.8429C69.4669 36.8676 69.111 36.8828 68.6969 36.8828Z" fill="#00696E"/>
</g>
<defs>
<clipPath id="clip0_2043_9885">
<rect width="80" height="38" fill="white"/>
</clipPath>
</defs>
</svg>
