<svg width="40" height="40" viewBox="0 0 40 40" fill="none" xmlns="http://www.w3.org/2000/svg">
<path d="M27.9669 20.8575L15.4683 32.9781C15.3522 33.0907 15.2143 33.18 15.0626 33.241C14.9109 33.3019 14.7483 33.3333 14.5841 33.3333C14.4198 33.3333 14.2572 33.3019 14.1055 33.241C13.9538 33.18 13.8159 33.0907 13.6998 32.9781C13.5836 32.8655 13.4915 32.7318 13.4287 32.5847C13.3658 32.4375 13.3335 32.2798 13.3335 32.1206C13.3335 31.9613 13.3658 31.8036 13.4287 31.6565C13.4915 31.5093 13.5836 31.3756 13.6998 31.263L25.3157 20L13.6998 8.73689C13.4652 8.50946 13.3335 8.201 13.3335 7.87936C13.3335 7.55772 13.4652 7.24926 13.6998 7.02183C13.9343 6.7944 14.2524 6.66663 14.5841 6.66663C14.9157 6.66663 15.2338 6.7944 15.4683 7.02183L27.9669 19.1424C28.0831 19.255 28.1753 19.3887 28.2382 19.5358C28.3011 19.683 28.3335 19.8407 28.3335 20C28.3335 20.1592 28.3011 20.317 28.2382 20.4641C28.1753 20.6112 28.0831 20.7449 27.9669 20.8575Z" fill="#4A6365"/>
</svg>
