<svg width="80" height="80" viewBox="0 0 80 80" fill="none" xmlns="http://www.w3.org/2000/svg">
<path d="M72.6305 35.7141L27.6008 7.74724C26.8416 7.27526 25.9721 7.0176 25.082 7.00087C24.192 6.98414 23.3136 7.20893 22.5378 7.65205C21.7693 8.08828 21.1291 8.72446 20.6831 9.49515C20.2371 10.2658 20.0013 11.1433 20 12.0371V67.9644C20.0058 69.3053 20.5358 70.5889 21.4735 71.5332C22.4112 72.4774 23.6798 73.005 25.0005 73C25.9223 72.9996 26.8263 72.7416 27.6133 72.2543L72.6305 44.2875C73.3541 43.8397 73.9521 43.2105 74.3671 42.4604C74.7821 41.7102 75 40.8643 75 40.0039C75 39.1436 74.7821 38.2977 74.3671 37.5475C73.9521 36.7974 73.3541 36.1682 72.6305 35.7204V35.7141ZM25.0005 67.9041V12.0784L69.9521 40.0008L25.0005 67.9041Z" fill="white" fill-opacity="0.5"/>
</svg>
