<svg width="40" height="40" viewBox="0 0 40 40" fill="none" xmlns="http://www.w3.org/2000/svg">
<path d="M12.0331 19.1425L24.5317 7.02191C24.6478 6.9093 24.7857 6.81997 24.9374 6.75902C25.0891 6.69808 25.2517 6.66671 25.4159 6.66671C25.5802 6.66671 25.7428 6.69808 25.8945 6.75902C26.0462 6.81997 26.1841 6.9093 26.3002 7.02191C26.4164 7.13452 26.5085 7.26821 26.5713 7.41535C26.6342 7.56248 26.6665 7.72018 26.6665 7.87944C26.6665 8.0387 26.6342 8.1964 26.5713 8.34353C26.5085 8.49067 26.4164 8.62436 26.3002 8.73697L14.6843 20L26.3002 31.2631C26.5348 31.4905 26.6665 31.799 26.6665 32.1206C26.6665 32.4423 26.5348 32.7507 26.3002 32.9782C26.0657 33.2056 25.7476 33.3334 25.4159 33.3334C25.0843 33.3334 24.7662 33.2056 24.5317 32.9782L12.0331 20.8576C11.9169 20.745 11.8247 20.6113 11.7618 20.4642C11.6989 20.317 11.6665 20.1593 11.6665 20C11.6665 19.8408 11.6989 19.683 11.7618 19.5359C11.8247 19.3888 11.9169 19.2551 12.0331 19.1425Z" fill="#4A6365"/>
</svg>
