<svg width="263" height="234" viewBox="0 0 263 234" fill="none" xmlns="http://www.w3.org/2000/svg">
<g clip-path="url(#clip0_1083_2134)">
<path d="M214.914 234C245.336 234 263 219.202 263 191.579C263 166.916 247.298 150.145 221.784 150.145C207.064 150.145 196.269 155.078 190.38 164.943C184.492 157.05 180.567 144.225 180.567 124.495C180.567 82.0741 194.306 43.5992 228.653 8.08399C232.578 4.13788 225.709 -2.76785 220.803 1.17829C176.642 44.5857 149.164 88.98 149.164 145.212C149.164 203.418 173.697 234 214.914 234ZM65.75 234C96.1715 234 113.836 219.202 113.836 191.579C113.836 166.916 98.1344 150.145 72.6194 150.145C57.8993 150.145 47.1045 155.078 41.2164 164.943C35.3283 157.05 31.403 144.225 31.403 124.495C31.403 82.0741 45.1418 43.5992 79.4888 8.08399C83.4138 4.13786 76.5448 -2.76786 71.6381 1.17827C27.4776 44.5857 4.90443e-06 88.98 0 145.212C-5.07649e-06 203.417 24.5336 234 65.75 234Z" fill="#E3F4F5"/>
</g>
<defs>
<clipPath id="clip0_1083_2134">
<rect width="263" height="234" fill="white"/>
</clipPath>
</defs>
</svg>
