<svg width="60" height="60" viewBox="0 0 60 60" fill="none" xmlns="http://www.w3.org/2000/svg">
<path d="M29.9997 34.565C32.3247 34.565 34.5544 33.6415 36.1984 31.9975C37.8424 30.3535 38.766 28.1237 38.766 25.7988C38.766 23.4738 37.8424 21.2441 36.1984 19.6001C34.5544 17.9561 32.3247 17.0325 29.9997 17.0325C27.6748 17.0325 25.445 17.9561 23.8011 19.6001C22.1571 21.2441 21.2335 23.4738 21.2335 25.7988C21.2335 28.1237 22.1571 30.3535 23.8011 31.9975C25.445 33.6415 27.6748 34.565 29.9997 34.565ZM29.9997 34.565C33.6548 34.5653 37.184 35.9001 39.9244 38.3187C42.6648 40.7374 44.4278 44.0733 44.8822 47.7C40.7202 51.2135 35.4464 53.1359 29.9997 53.125C24.553 53.1359 19.2792 51.2135 15.1172 47.7M29.9997 34.565C26.3447 34.5653 22.8155 35.9001 20.0751 38.3187C17.3347 40.7374 15.5717 44.0733 15.1172 47.7M15.1172 47.7C11.4868 44.647 8.88304 40.5513 7.65906 35.9684C6.43508 31.3855 6.65008 26.537 8.2749 22.0804C9.89972 17.6238 12.8557 13.7747 16.7422 11.055C20.6286 8.33523 25.2574 6.87646 30.001 6.87646C34.7445 6.87646 39.3733 8.33523 43.2598 11.055C47.1462 13.7747 50.1022 17.6238 51.7271 22.0804C53.3519 26.537 53.5669 31.3855 52.3429 35.9684C51.1189 40.5513 48.5152 44.647 44.8847 47.7" stroke="#6F7979" stroke-width="1.5" stroke-linecap="round" stroke-linejoin="round"/>
</svg>
